<?xml version="1.0" encoding="UTF-8"?>
<svg version="1.1" xmlns="http://www.w3.org/2000/svg" width="320" height="320">
<path d="M0 0 C0.69319336 0.16097168 1.38638672 0.32194336 2.10058594 0.48779297 C35.21361946 8.46342182 64.76665762 30.32156722 83 59 C101.71194431 89.88457189 108.17565388 126.62534152 100 162 C91.25318088 197.43899013 69.20209482 227.48947103 38.08984375 246.40234375 C7.35548009 264.58824693 -29.35077579 270.05826739 -64.10693359 261.47998047 C-85.87969855 255.70795394 -105.47524765 245.27877667 -122 230 C-122.51159668 229.53223145 -123.02319336 229.06446289 -123.55029297 228.58251953 C-147.60820108 206.35585086 -163.63106977 174.180013 -165.1262207 141.21728516 C-165.47901537 127.21077671 -165.24729809 113.66638463 -162 100 C-161.83902832 99.30680664 -161.67805664 98.61361328 -161.51220703 97.89941406 C-157.5199779 81.32456842 -150.16000972 65.6832389 -140 52 C-139.4225 51.20078125 -138.845 50.4015625 -138.25 49.578125 C-116.15144171 20.43088864 -84.23805091 2.9677169 -48.375 -2.55859375 C-32.38811862 -4.45363151 -15.65680516 -3.72024606 0 0 Z " fill="#DA1C2E" transform="translate(191,29)"/>
<path d="M0 0 C2.41088539 3.61632808 3.13884405 5.23603247 3.125 9.5 C3.12886719 10.69109375 3.12886719 10.69109375 3.1328125 11.90625 C3 14 3 14 2 16 C0.08964212 36.41353849 6.94681495 55.57559152 15 74 C13.98292969 74.58394531 13.98292969 74.58394531 12.9453125 75.1796875 C-3.51222139 85.07244333 -14.94476031 100.55305281 -20.3125 119.0625 C-21.95738688 128.11773678 -21.95738688 128.11773678 -19.125 136.5625 C-17.00334297 138.99616542 -16.20234876 139.87495573 -13.046875 140.203125 C-6.41738714 140.33842067 -2.41447828 139.18452797 2.625 134.625 C3.40875 133.75875 4.1925 132.8925 5 132 C5.70125 131.236875 6.4025 130.47375 7.125 129.6875 C11.64110138 123.21442135 12.79436818 116.83674763 12 109 C10.84983746 107.63777693 10.84983746 107.63777693 7.75 107.6875 C3.21166126 108.0656949 2.0406905 108.63923682 -1 112 C-4.18734014 117.12784199 -6.81624433 121.79654312 -6 128 C-1.213127 125.10058761 2.17783213 122.7502456 3.875 117.25 C4.05804688 116.49203125 4.24109375 115.7340625 4.4296875 114.953125 C5 113 5 113 7 111 C9.125 111.375 9.125 111.375 11 112 C10.40698691 120.3021832 7.7859245 126.86341341 2 133 C-0.82924481 135.15916051 -2.58951003 135.9425314 -6.125 136.4375 C-9 136 -9 136 -10.875 134.5625 C-13.61002673 128.33271688 -12.17884778 122.86747397 -9.9375 116.75 C-4.03248166 102.53482944 4.52385286 86.18354249 18.046875 77.71875 C20 77 20 77 23 78 C22.278125 78.680625 21.55625 79.36125 20.8125 80.0625 C15.59853462 85.36559299 12.56362058 89.51884438 11.84765625 97.08203125 C11.81057928 99.24317776 11.81057928 99.24317776 14 101 C17.59679066 100.67673447 17.59679066 100.67673447 21 100 C21.73864165 110.25891176 21.0321834 116.48114526 15 125 C13.26246358 129.10690428 12.33681931 132.54721536 13 137 C13.84820312 137.69867188 14.69640625 138.39734375 15.5703125 139.1171875 C18.17127268 142.20321421 18.342013 142.43758015 18.05078125 146.16015625 C17.82747856 147.79754091 17.57986002 149.43172987 17.3125 151.0625 C17.07969803 152.86101905 16.85464538 154.66055545 16.63671875 156.4609375 C16.52376465 157.3797168 16.41081055 158.29849609 16.29443359 159.24511719 C15.04642436 170.92217867 15.56291834 181.90564411 18.5612793 193.24829102 C20.34919653 200.02479843 21.17235553 206.19102986 18.9375 212.9375 C16.52277725 216.75431983 14.20605953 217.87517033 10 219 C9.33033203 219.18046875 8.66066406 219.3609375 7.97070312 219.546875 C0.84566313 221.17828052 -6.11870263 221.2739584 -13.40698242 221.20581055 C-15.45829457 221.18731248 -17.50915916 221.18530316 -19.56054688 221.18554688 C-29.57758268 221.14080577 -29.57758268 221.14080577 -33 220 C-33 219.34 -33 218.68 -33 218 C-33.86625 217.9175 -34.7325 217.835 -35.625 217.75 C-39.51142126 216.88635083 -41.80949282 215.33970526 -45 213 C-45.99 212.34 -46.98 211.68 -48 211 C-49.35990496 203.28253936 -48.0286829 196.45406221 -45.5 189.1875 C-40.29358939 173.76290035 -42.1209768 155.80892206 -45 140 C-39.55306686 139.90311779 -34.36095333 139.87137825 -29 141 C-34.48015148 135.55046389 -39.6632703 132.42051943 -47 130 C-46.67 127.03 -46.34 124.06 -46 121 C-45.34 121 -44.68 121 -44 121 C-43.67 121.66 -43.34 122.32 -43 123 C-39.12346234 123.46149258 -37.35045571 123.21903482 -34 121.125 C-30.01616528 117.48896038 -27.56419823 112.68284429 -25 108 C-25.66 108 -26.32 108 -27 108 C-28.51199628 109.7927642 -28.51199628 109.7927642 -30 112 C-31.5625 114.25 -31.5625 114.25 -33 116 C-33.66 116 -34.32 116 -35 116 C-33.32067048 110.1899059 -30.60791608 104.99131421 -27.875 99.625 C-27.40707031 98.69816406 -26.93914062 97.77132812 -26.45703125 96.81640625 C-25.30830944 94.54240594 -24.15588119 92.27036718 -23 90 C-25.58492789 90.08716617 -28.16647502 90.19405119 -30.75 90.3125 C-31.47960937 90.33505859 -32.20921875 90.35761719 -32.9609375 90.38085938 C-37.28050512 90.59683776 -39.78148432 91.08614964 -43 94 C-43.66 94 -44.32 94 -45 94 C-45.125 88.25 -45.125 88.25 -44 86 C-43.87756756 84.3610377 -43.78451177 82.71982653 -43.70703125 81.078125 C-43.1755536 74.74167305 -41.1732942 69.55447545 -38.6875 63.75 C-35.06111812 54.93079399 -32.10184025 46.30395019 -30 37 C-29.12159004 40.09720845 -29.00564594 41.90645403 -30 45 C-27.36 44.67 -24.72 44.34 -22 44 C-22 46.97 -22 49.94 -22 53 C-21.34 53 -20.68 53 -20 53 C-20 51.68 -20 50.36 -20 49 C-18.68 49 -17.36 49 -16 49 C-16 47.02 -16 45.04 -16 43 C-14.35 43 -12.7 43 -11 43 C-11.495 32.605 -11.495 32.605 -12 22 C-12.66 21.67 -13.32 21.34 -14 21 C-14 20.01 -14 19.02 -14 18 C-10.7 18 -7.4 18 -4 18 C-4 17.34 -4 16.68 -4 16 C-7.3 16 -10.6 16 -14 16 C-14 14.68 -14 13.36 -14 12 C-12.02 12 -10.04 12 -8 12 C-8.495 6.555 -8.495 6.555 -9 1 C-8.01 1 -7.02 1 -6 1 C-6 1.99 -6 2.98 -6 4 C-5.34 4 -4.68 4 -4 4 C-4 3.01 -4 2.02 -4 1 C-3.34 1 -2.68 1 -2 1 C-2 1.99 -2 2.98 -2 4 C-1.34 4 -0.68 4 0 4 C0 2.68 0 1.36 0 0 Z " fill="#6F1C09" transform="translate(175,53)"/>
<path d="M0 0 C2.41088539 3.61632808 3.13884405 5.23603247 3.125 9.5 C3.12886719 10.69109375 3.12886719 10.69109375 3.1328125 11.90625 C3 14 3 14 2 16 C0.08964212 36.41353849 6.94681495 55.57559152 15 74 C13.98292969 74.58394531 13.98292969 74.58394531 12.9453125 75.1796875 C-3.51222139 85.07244333 -14.94476031 100.55305281 -20.3125 119.0625 C-21.30666097 124.75633102 -21.84715982 130.45852055 -20 136 C-19.93119726 137.45608524 -19.92027012 138.91532948 -19.9465332 140.37280273 C-19.9601741 141.25479843 -19.973815 142.13679413 -19.98786926 143.04551697 C-20.00863022 143.99858231 -20.02939117 144.95164764 -20.05078125 145.93359375 C-20.07908272 147.41606346 -20.07908272 147.41606346 -20.10795593 148.92848206 C-20.14986952 151.02586443 -20.19461004 153.12319192 -20.24194336 155.22045898 C-20.3115374 158.39361004 -20.36627695 161.56677889 -20.41992188 164.74023438 C-20.88833824 188.76797805 -20.88833824 188.76797805 -23 194 C-25.92361053 196.06729021 -27.2724926 196 -31 196 C-31.16682272 191.07872966 -31.24828052 187.49656104 -29 183 C-28.34 183 -27.68 183 -27 183 C-27.495 175.575 -27.495 175.575 -28 168 C-28.66 168.33 -29.32 168.66 -30 169 C-31.3300103 160.02243049 -31.08788039 151.05168034 -31 142 C-30.34 141.67 -29.68 141.34 -29 141 C-34.48015148 135.55046389 -39.6632703 132.42051943 -47 130 C-46.67 127.03 -46.34 124.06 -46 121 C-45.34 121 -44.68 121 -44 121 C-43.67 121.66 -43.34 122.32 -43 123 C-39.12346234 123.46149258 -37.35045571 123.21903482 -34 121.125 C-30.01616528 117.48896038 -27.56419823 112.68284429 -25 108 C-25.66 108 -26.32 108 -27 108 C-28.51199628 109.7927642 -28.51199628 109.7927642 -30 112 C-31.5625 114.25 -31.5625 114.25 -33 116 C-33.66 116 -34.32 116 -35 116 C-33.32067048 110.1899059 -30.60791608 104.99131421 -27.875 99.625 C-27.40707031 98.69816406 -26.93914062 97.77132812 -26.45703125 96.81640625 C-25.30830944 94.54240594 -24.15588119 92.27036718 -23 90 C-25.58492789 90.08716617 -28.16647502 90.19405119 -30.75 90.3125 C-31.47960937 90.33505859 -32.20921875 90.35761719 -32.9609375 90.38085938 C-37.28050512 90.59683776 -39.78148432 91.08614964 -43 94 C-43.66 94 -44.32 94 -45 94 C-45.125 88.25 -45.125 88.25 -44 86 C-43.87756756 84.3610377 -43.78451177 82.71982653 -43.70703125 81.078125 C-43.1755536 74.74167305 -41.1732942 69.55447545 -38.6875 63.75 C-35.06111812 54.93079399 -32.10184025 46.30395019 -30 37 C-29.12159004 40.09720845 -29.00564594 41.90645403 -30 45 C-27.36 44.67 -24.72 44.34 -22 44 C-22 46.97 -22 49.94 -22 53 C-21.34 53 -20.68 53 -20 53 C-20 51.68 -20 50.36 -20 49 C-18.68 49 -17.36 49 -16 49 C-16 47.02 -16 45.04 -16 43 C-14.35 43 -12.7 43 -11 43 C-11.495 32.605 -11.495 32.605 -12 22 C-12.66 21.67 -13.32 21.34 -14 21 C-14 20.01 -14 19.02 -14 18 C-10.7 18 -7.4 18 -4 18 C-4 17.34 -4 16.68 -4 16 C-7.3 16 -10.6 16 -14 16 C-14 14.68 -14 13.36 -14 12 C-12.02 12 -10.04 12 -8 12 C-8.495 6.555 -8.495 6.555 -9 1 C-8.01 1 -7.02 1 -6 1 C-6 1.99 -6 2.98 -6 4 C-5.34 4 -4.68 4 -4 4 C-4 3.01 -4 2.02 -4 1 C-3.34 1 -2.68 1 -2 1 C-2 1.99 -2 2.98 -2 4 C-1.34 4 -0.68 4 0 4 C0 2.68 0 1.36 0 0 Z " fill="#6F1F0C" transform="translate(175,53)"/>
<path d="M0 0 C-0.721875 0.680625 -1.44375 1.36125 -2.1875 2.0625 C-7.40146538 7.36559299 -10.43637942 11.51884438 -11.15234375 19.08203125 C-11.18942072 21.24317776 -11.18942072 21.24317776 -9 23 C-5.40320934 22.67673447 -5.40320934 22.67673447 -2 22 C-1.26135835 32.25891176 -1.9678166 38.48114526 -8 47 C-9.73753642 51.10690428 -10.66318069 54.54721536 -10 59 C-9.15179688 59.69867188 -8.30359375 60.39734375 -7.4296875 61.1171875 C-4.82872732 64.20321421 -4.657987 64.43758015 -4.94921875 68.16015625 C-5.17252144 69.79754091 -5.42013998 71.43172987 -5.6875 73.0625 C-5.92030197 74.86101905 -6.14535462 76.66055545 -6.36328125 78.4609375 C-6.5327124 79.83910645 -6.5327124 79.83910645 -6.70556641 81.24511719 C-7.95357564 92.92217867 -7.43708166 103.90564411 -4.4387207 115.24829102 C-2.65080347 122.02479843 -1.82764447 128.19102986 -4.0625 134.9375 C-6.47722275 138.75431983 -8.79394047 139.87517033 -13 141 C-13.66966797 141.18046875 -14.33933594 141.3609375 -15.02929688 141.546875 C-22.15433687 143.17828052 -29.11870263 143.2739584 -36.40698242 143.20581055 C-38.45829457 143.18731248 -40.50915916 143.18530316 -42.56054688 143.18554688 C-52.57758268 143.14080577 -52.57758268 143.14080577 -56 142 C-56 141.34 -56 140.68 -56 140 C-56.86625 139.9175 -57.7325 139.835 -58.625 139.75 C-63.35211773 138.69952939 -66.6014777 136.3985223 -70 133 C-70.125 129.875 -70.125 129.875 -70 127 C-69.15179688 127.26554688 -68.30359375 127.53109375 -67.4296875 127.8046875 C-58.93342111 130.36290397 -50.822252 131.98101649 -42 133 C-41.67 132.01 -41.34 131.02 -41 130 C-40.01 130.33 -39.02 130.66 -38 131 C-38.33 131.33 -38.66 131.66 -39 132 C-30.83759432 132.33853295 -23.04927976 131.29901921 -15 130 C-15 129.01 -15 128.02 -15 127 C-14.34 127 -13.68 127 -13 127 C-13.433125 126.18595703 -13.433125 126.18595703 -13.875 125.35546875 C-14.24625 124.64003906 -14.6175 123.92460937 -15 123.1875 C-15.37125 122.47980469 -15.7425 121.77210938 -16.125 121.04296875 C-17 119 -17 119 -17 116 C-17.66 116 -18.32 116 -19 116 C-19.33 116.66 -19.66 117.32 -20 118 C-22 116 -22 116 -22.1953125 114.0546875 C-22.13020833 112.03645833 -22.06510417 110.01822917 -22 108 C-22.33 108 -22.66 108 -23 108 C-23.126851 101.11340009 -23.21437266 94.22710177 -23.2746582 87.33959961 C-23.29979125 84.99703716 -23.33390308 82.65455305 -23.37719727 80.31225586 C-23.43789928 76.94365101 -23.46622251 73.57608351 -23.48828125 70.20703125 C-23.51408768 69.16102249 -23.5398941 68.11501373 -23.56648254 67.03730774 C-23.56929837 59.72557863 -23.56929837 59.72557863 -20.60229492 55.9440918 C-19.7435376 55.3025415 -18.88478027 54.66099121 -18 54 C-12.16082466 47.6456033 -10.64159023 41.47986671 -10.796875 33.00390625 C-10.78639727 31.00287215 -10.78639727 31.00287215 -12 30 C-15.76862611 29.63763211 -18.23808006 29.60089908 -21.625 31.375 C-25.83575522 36.02899261 -28.76974258 41.32901397 -29.3125 47.625 C-29.1578125 48.800625 -29.1578125 48.800625 -29 50 C-24.213127 47.10058761 -20.82216787 44.7502456 -19.125 39.25 C-18.94195312 38.49203125 -18.75890625 37.7340625 -18.5703125 36.953125 C-18 35 -18 35 -16 33 C-13.875 33.375 -13.875 33.375 -12 34 C-12.59301309 42.3021832 -15.2140755 48.86341341 -21 55 C-23.82924481 57.15916051 -25.58951003 57.9425314 -29.125 58.4375 C-32 58 -32 58 -33.875 56.5625 C-36.61002673 50.33271688 -35.17884778 44.86747397 -32.9375 38.75 C-27.03248166 24.53482944 -18.47614714 8.18354249 -4.953125 -0.28125 C-3 -1 -3 -1 0 0 Z " fill="#841D11" transform="translate(198,131)"/>
<path d="M0 0 C0.495 0.495 0.495 0.495 1 1 C0.71269945 3.33944736 0.38063221 5.6739143 0 8 C4.79016959 5.76537994 8.98745115 3.51098025 13 0 C11.68597051 6.40589378 7.75612548 10.74773372 3 15 C0.16585996 16.7279481 -2.66949151 18.21718757 -5.6796875 19.61328125 C-8.3316411 21.19820301 -8.8562518 22.19648697 -10 25 C-14.91448771 32.37978811 -20.97070665 40.42038579 -28.375 45.375 C-32.45030988 49.45030988 -32.99192401 54.45558204 -34 60 C-29.31143634 57.72575822 -27.14221261 54.60933712 -24.5625 50.25 C-17.01575218 38.01050145 -17.01575218 38.01050145 -11 34 C-8.23344676 33.85754103 -5.57346694 33.81230555 -2.8125 33.875 C-2.06291016 33.88402344 -1.31332031 33.89304688 -0.54101562 33.90234375 C1.30612654 33.92587422 3.15310412 33.96174439 5 34 C3.32067048 39.8100941 0.60791608 45.00868579 -2.125 50.375 C-2.59292969 51.30183594 -3.06085938 52.22867188 -3.54296875 53.18359375 C-4.69169056 55.45759406 -5.84411881 57.72963282 -7 60 C-3.06377778 57.00716988 -0.71767217 54.12336466 2 50 C2.66 50 3.32 50 4 50 C2.3938758 56.95987153 -2.070843 62.6985195 -7.625 67.0625 C-10.33362596 68.13169446 -12.11933225 68.46713531 -15 68 C-15.66 67.01 -16.32 66.02 -17 65 C-17.556875 65.495 -18.11375 65.99 -18.6875 66.5 C-21.4633687 68.30056348 -22.75814065 68.66499679 -26 68 C-27.8125 65.5 -27.8125 65.5 -29 63 C-29.886875 63.825 -30.77375 64.65 -31.6875 65.5 C-33.9245127 67.36682147 -34.79485919 67.96736396 -37.75 68.4375 C-40 68 -40 68 -42 66 C-42.23046875 63.3203125 -42.23046875 63.3203125 -42.1875 60.125 C-42.18105469 59.07570312 -42.17460937 58.02640625 -42.16796875 56.9453125 C-42.02619538 54.45933296 -41.7160399 52.37152414 -41 50 C-42.32 50 -43.64 50 -45 50 C-45.24878906 50.88171875 -45.49757812 51.7634375 -45.75390625 52.671875 C-47.05880216 56.15705155 -48.58178247 58.3897992 -50.9375 61.25 C-51.62714844 62.10078125 -52.31679687 62.9515625 -53.02734375 63.828125 C-55.56767264 66.62500195 -57.21228366 67.90153546 -61 68.375 C-64 68 -64 68 -65.9375 66.5625 C-68.03798723 61.49661904 -66.76981182 57.02009238 -64.8671875 52.02734375 C-61.58851311 44.94146549 -57.24004236 37.62002118 -50 34 C-47 33.8125 -47 33.8125 -44 34 C-42 36 -42 36 -41.8125 39.9375 C-41.83809684 42.67636155 -42.11335844 44.34007532 -43 47 C-41.68 47 -40.36 47 -39 47 C-38.83129395 46.44675049 -38.66258789 45.89350098 -38.48876953 45.32348633 C-36.74215212 39.81819957 -34.6036719 34.7733205 -31.875 29.6875 C-31.48320557 28.95547363 -31.09141113 28.22344727 -30.68774414 27.46923828 C-24.33269995 15.87562801 -14.74161 -0.81897833 0 0 Z " fill="#FDF5F5" transform="translate(254,126)"/>
<path d="M0 0 C1.11181641 -0.01836914 1.11181641 -0.01836914 2.24609375 -0.03710938 C6.06787651 -0.04740143 9.01290641 0.03227716 12.25 2.1875 C12.25 3.5075 12.25 4.8275 12.25 6.1875 C6.11887614 9.91948844 -0.21993053 12.50118658 -6.93530273 15.00097656 C-13.35570325 17.45945099 -19.24660114 20.48879263 -25.1875 23.9375 C-26.57859985 24.74018311 -26.57859985 24.74018311 -27.99780273 25.55908203 C-33.47412763 28.75653516 -38.72560646 32.07797721 -43.76171875 35.94140625 C-46.2715633 37.82789071 -48.80763529 39.62491077 -51.39453125 41.40234375 C-59.87421028 47.23011711 -68.19532359 53.03911984 -75.88037109 59.8996582 C-78.20111493 61.9619717 -79.75793836 63.19014612 -82.75 64.1875 C-83.08 65.1775 -83.41 66.1675 -83.75 67.1875 C-84.41 67.1875 -85.07 67.1875 -85.75 67.1875 C-86.08 68.1775 -86.41 69.1675 -86.75 70.1875 C-89.45879335 71.54189668 -91.75933268 71.25251451 -94.75 71.1875 C-95.09650743 65.52787856 -94.23055609 62.14861218 -91.75 57.1875 C-91.255 56.6925 -91.255 56.6925 -90.75 56.1875 C-90.66621094 54.96933594 -90.58242187 53.75117187 -90.49609375 52.49609375 C-89.9568389 47.8498077 -88.10135013 45.61265322 -84.8125 42.25 C-84.0687915 41.48369263 -84.0687915 41.48369263 -83.31005859 40.7019043 C-81.8106409 39.17454269 -80.2862967 37.67767232 -78.75 36.1875 C-77.92628906 35.37796875 -77.10257813 34.5684375 -76.25390625 33.734375 C-67.6889876 25.68982086 -57.88392875 19.38743471 -47.875 13.3125 C-47.26889893 12.94318359 -46.66279785 12.57386719 -46.03833008 12.19335938 C-40.95218534 9.16384988 -35.71103813 6.43252147 -29.875 5.1875 C-26.21077567 4.34571874 -22.74186679 3.1787121 -19.21875 1.87109375 C-12.93475892 0.13106457 -6.47738936 0.00575257 0 0 Z " fill="#F7CEC0" transform="translate(144.75,32.8125)"/>
<path d="M0 0 C1.26237731 2.52475462 1.09856404 4.31200466 1.0625 7.125 C1.05347656 8.03507813 1.04445313 8.94515625 1.03515625 9.8828125 C1.02355469 10.58148438 1.01195313 11.28015625 1 12 C4.45411499 11.29920746 4.45411499 11.29920746 8 10 C9.07088784 8.10846337 9.07088784 8.10846337 10 6 C12.56230021 2.98064084 15.22948468 0.39876471 19.16796875 -0.48828125 C21.3125 -0.5625 21.3125 -0.5625 25 0 C27 3 27 3 26.875 5.9375 C25.89462199 9.36882304 24.69937452 10.73600847 22 13 C21.01 12.67 20.02 12.34 19 12 C19.875 7.25 19.875 7.25 21 5 C15.57474781 9.46785475 12.44657848 15.46738323 10 22 C9.77423809 25.2534192 9.77423809 25.2534192 10 28 C14.49140924 27.48669609 16.6903637 26.04194513 20 23 C21.9123184 20.48580794 23.60128956 17.84104992 25.3125 15.1875 C34.32523531 1.89517487 34.32523531 1.89517487 39 0 C44.32897259 -0.73234018 49.65672335 -0.40852722 55 0 C53.32067048 5.8100941 50.60791608 11.00868579 47.875 16.375 C47.17310547 17.76525391 47.17310547 17.76525391 46.45703125 19.18359375 C45.30830944 21.45759406 44.15588119 23.72963282 43 26 C45.91261983 23.12551595 48.64151525 20.35153096 51 17 C52.485 17.495 52.485 17.495 54 18 C46.55943645 30.56970942 46.55943645 30.56970942 41 34 C37.625 34.3125 37.625 34.3125 35 34 C34.67 33.01 34.34 32.02 34 31 C33.29875 31.495 32.5975 31.99 31.875 32.5 C28.58917682 34.21434253 26.65546065 34.40616229 23 34 C20.8614515 31.8614515 20.57344937 30.86724686 20 28 C19.443125 28.433125 18.88625 28.86625 18.3125 29.3125 C11.29404901 34.43407235 11.29404901 34.43407235 6.625 34.625 C3 34 3 34 1 32.4375 C-0.60509843 28.52507259 -0.68443438 25.02183488 0.6796875 20.9921875 C1.39758436 19.30342059 2.1928331 17.64796576 3 16 C1.09753862 16.10904627 1.09753862 16.10904627 -1 17 C-2.76980516 19.3283812 -2.76980516 19.3283812 -4.3125 22.1875 C-7.22600412 26.95844065 -9.97801584 31.28391585 -15 34 C-18.8125 34.5 -18.8125 34.5 -22 34 C-24.51522009 31.48477991 -24.35317085 30.49221899 -24.4375 27 C-24.19916547 16.84430082 -18.81166743 10.2911158 -12.18359375 3.03125 C-8.03799087 -0.82512477 -5.53667252 -1.47644601 0 0 Z " fill="#FCF5F5" transform="translate(97,143)"/>
<path d="M0 0 C1.34191406 0.75796875 1.34191406 0.75796875 2.7109375 1.53125 C2.7109375 6.21216299 1.71447879 7.15226604 -1.2890625 10.53125 C-3.62907403 9.42516379 -5.79154046 8.2163832 -7.98828125 6.83984375 C-14.26949081 2.90690338 -18.84348497 0.65534296 -26.2890625 0.53125 C-26.2271875 1.52125 -26.1653125 2.51125 -26.1015625 3.53125 C-26.16290171 11.15264701 -29.52894274 16.31111028 -34.375 21.96484375 C-36.72952031 23.89170629 -38.25281983 24.42040305 -41.2890625 24.53125 C-43.08984375 23.34375 -43.08984375 23.34375 -44.2890625 21.53125 C-45.14555062 17.01351049 -43.77945354 13.33174126 -41.4296875 9.49609375 C-39.45098962 6.77713832 -37.4219339 4.13053519 -35.2890625 1.53125 C-41.92870694 2.45806536 -46.66710796 9.08407518 -50.53173828 14.16503906 C-57.61155302 24.1258049 -66.62626211 37.72740624 -66.5390625 50.21875 C-66.54421875 50.96511719 -66.549375 51.71148437 -66.5546875 52.48046875 C-66.4030517 54.84042927 -66.4030517 54.84042927 -64.2890625 57.53125 C-61.05384941 57.96261174 -58.84503381 57.73973924 -55.7890625 56.59375 C-50.59219056 52.30633065 -46.78354847 46.10698828 -45.2890625 39.53125 C-45.12048767 36.78059768 -45.12048767 36.78059768 -45.2890625 34.53125 C-47.25909676 34.66706327 -47.25909676 34.66706327 -49.2890625 35.53125 C-50.32325627 37.65115362 -50.32325627 37.65115362 -50.9765625 40.21875 C-53.12148853 46.27143602 -56.75177866 48.62062644 -62.2890625 51.53125 C-63.01527128 44.85012919 -60.88379971 40.13147218 -57.2890625 34.53125 C-54.45375443 31.04164007 -52.11251142 29.62731904 -47.5390625 29.09375 C-44.2890625 29.53125 -44.2890625 29.53125 -42.2890625 31.53125 C-40.81598747 40.59237429 -44.06501978 47.5843234 -49.1640625 54.84375 C-52.5618542 59.16195616 -56.01885191 61.77451314 -61.2890625 63.53125 C-65.8437596 64.05154311 -69.22578798 64.16469014 -73.2265625 61.78125 C-77.13006442 57.52288427 -77.73839006 54.07559665 -77.59765625 48.4296875 C-75.72516783 30.8425178 -64.59396434 13.82025762 -51.2890625 2.53125 C-43.15810229 -2.96102856 -38.48154003 -4.57008574 -28.671875 -4.40625 C-8.7630155 -4.77408112 -8.7630155 -4.77408112 0 0 Z " fill="#FBF6F5" transform="translate(230.2890625,130.46875)"/>
<path d="M0 0 C1.9375 1.0625 1.9375 1.0625 3 3 C3.39995291 6.66623504 3.43899865 9.0988975 1.8125 12.4375 C0 14 0 14 -2.6875 14.25 C-3.450625 14.1675 -4.21375 14.085 -5 14 C-4.75 11.125 -4.75 11.125 -4 8 C-1.9375 6.625 -1.9375 6.625 0 6 C0 5.34 0 4.68 0 4 C-13.24753015 8.69183359 -20.41036828 20.30275268 -26.7109375 32.2421875 C-29.68019655 38.57546259 -31.14245811 43.97392984 -31.25 51 C-31.27578125 52.010625 -31.3015625 53.02125 -31.328125 54.0625 C-30.945128 57.49123503 -30.0988892 59.27711672 -28 62 C-23.42594934 65.10280963 -18.29342882 64.61241273 -13 64 C-8.60216369 63.00196127 -4.30957108 61.6587655 -0.015625 60.2890625 C0.66540283 60.07233887 1.34643066 59.85561523 2.0480957 59.63232422 C3.81783437 59.05901301 5.57939392 58.46060465 7.33984375 57.859375 C12.20397793 56.71731575 16.8323821 56.63178953 21.8125 56.625 C22.74642578 56.60050781 23.68035156 56.57601562 24.64257812 56.55078125 C33.74872387 56.51286531 41.46654629 58.80633512 48.125 65.25 C48.87007813 65.95640625 49.61515625 66.6628125 50.3828125 67.390625 C50.91648437 67.92171875 51.45015625 68.4528125 52 69 C48.73315033 70.08894989 48.14647871 69.8390366 45 69 C43.47037699 68.96537021 41.93900318 68.98319546 40.41015625 69.04296875 C39.10981445 69.07487305 39.10981445 69.07487305 37.78320312 69.10742188 C35.97292068 69.1607037 34.1629457 69.22576511 32.35351562 69.30273438 C25.67290455 69.43664417 25.67290455 69.43664417 21.99609375 67.05078125 C21.33738281 66.37402344 20.67867187 65.69726562 20 65 C12.27689931 61.13844965 0.86913064 64.03622635 -6.9375 66.5 C-15.76585046 69.23105868 -26.68891857 71.8758116 -35.51171875 67.85546875 C-40.04922842 64.25019377 -42.60762131 59.40545199 -43.5390625 53.6953125 C-43.95510584 36.41060264 -35.55170292 23.1027627 -23.96875 10.8515625 C-17.67940689 4.94885933 -8.99513011 -1.6865869 0 0 Z " fill="#FCF5F5" transform="translate(95,125)"/>
<path d="M0 0 C0.95003906 -0.00257812 1.90007812 -0.00515625 2.87890625 -0.0078125 C3.87535156 -0.00007813 4.87179688 0.00765625 5.8984375 0.015625 C6.87167969 0.00789063 7.84492188 0.00015625 8.84765625 -0.0078125 C14.67004682 0.00786015 19.69295072 0.59545556 25.2734375 2.265625 C25.2734375 4.245625 25.2734375 6.225625 25.2734375 8.265625 C24.6134375 8.265625 23.9534375 8.265625 23.2734375 8.265625 C23.2734375 9.585625 23.2734375 10.905625 23.2734375 12.265625 C22.6134375 12.265625 21.9534375 12.265625 21.2734375 12.265625 C21.2734375 11.275625 21.2734375 10.285625 21.2734375 9.265625 C20.6134375 9.265625 19.9534375 9.265625 19.2734375 9.265625 C19.2734375 10.255625 19.2734375 11.245625 19.2734375 12.265625 C18.6134375 12.265625 17.9534375 12.265625 17.2734375 12.265625 C17.2734375 11.275625 17.2734375 10.285625 17.2734375 9.265625 C16.2834375 9.265625 15.2934375 9.265625 14.2734375 9.265625 C14.5209375 10.0390625 14.5209375 10.0390625 14.7734375 10.828125 C15.4239275 13.99926376 15.3355109 17.03780834 15.2734375 20.265625 C13.2934375 20.265625 11.3134375 20.265625 9.2734375 20.265625 C9.2734375 21.585625 9.2734375 22.905625 9.2734375 24.265625 C12.5734375 24.265625 15.8734375 24.265625 19.2734375 24.265625 C19.2734375 24.925625 19.2734375 25.585625 19.2734375 26.265625 C15.9734375 26.265625 12.6734375 26.265625 9.2734375 26.265625 C9.2734375 27.255625 9.2734375 28.245625 9.2734375 29.265625 C10.2634375 29.595625 11.2534375 29.925625 12.2734375 30.265625 C12.2734375 37.195625 12.2734375 44.125625 12.2734375 51.265625 C10.6234375 51.265625 8.9734375 51.265625 7.2734375 51.265625 C7.2734375 53.245625 7.2734375 55.225625 7.2734375 57.265625 C5.9534375 57.265625 4.6334375 57.265625 3.2734375 57.265625 C3.2734375 58.585625 3.2734375 59.905625 3.2734375 61.265625 C2.6134375 61.265625 1.9534375 61.265625 1.2734375 61.265625 C1.2734375 58.295625 1.2734375 55.325625 1.2734375 52.265625 C-1.3665625 52.595625 -4.0065625 52.925625 -6.7265625 53.265625 C-6.654375 52.34523437 -6.5821875 51.42484375 -6.5078125 50.4765625 C-4.52580901 35.95891934 -4.52580901 35.95891934 -6.7265625 22.265625 C-6.96455955 18.9376663 -6.91174615 15.60116413 -6.9140625 12.265625 C-6.92630859 11.3375 -6.93855469 10.409375 -6.95117188 9.453125 C-6.95310547 8.56625 -6.95503906 7.679375 -6.95703125 6.765625 C-6.96114014 5.9509375 -6.96524902 5.13625 -6.96948242 4.296875 C-6.44738134 -0.06883452 -3.7187344 0.00975132 0 0 Z " fill="#C3D8A6" transform="translate(151.7265625,44.734375)"/>
<path d="M0 0 C1.11181641 -0.01836914 1.11181641 -0.01836914 2.24609375 -0.03710938 C6.06787651 -0.04740143 9.01290641 0.03227716 12.25 2.1875 C12.25 3.5075 12.25 4.8275 12.25 6.1875 C6.11887614 9.91948844 -0.21993053 12.50118658 -6.93530273 15.00097656 C-13.35570325 17.45945099 -19.24660114 20.48879263 -25.1875 23.9375 C-26.57859985 24.74018311 -26.57859985 24.74018311 -27.99780273 25.55908203 C-33.47412763 28.75653516 -38.72560646 32.07797721 -43.76171875 35.94140625 C-46.2715633 37.82789071 -48.80763529 39.62491077 -51.39453125 41.40234375 C-59.87421028 47.23011711 -68.19532359 53.03911984 -75.88037109 59.8996582 C-78.20111493 61.9619717 -79.75793836 63.19014612 -82.75 64.1875 C-83.08 65.1775 -83.41 66.1675 -83.75 67.1875 C-84.41 67.1875 -85.07 67.1875 -85.75 67.1875 C-86.08 68.1775 -86.41 69.1675 -86.75 70.1875 C-89.45879335 71.54189668 -91.75933268 71.25251451 -94.75 71.1875 C-95.09650743 65.52787856 -94.23055609 62.14861218 -91.75 57.1875 C-91.255 56.6925 -91.255 56.6925 -90.75 56.1875 C-90.66621094 54.96933594 -90.58242187 53.75117187 -90.49609375 52.49609375 C-89.9568389 47.8498077 -88.10135013 45.61265322 -84.8125 42.25 C-84.0687915 41.48369263 -84.0687915 41.48369263 -83.31005859 40.7019043 C-81.8106409 39.17454269 -80.2862967 37.67767232 -78.75 36.1875 C-77.92628906 35.37796875 -77.10257813 34.5684375 -76.25390625 33.734375 C-67.6889876 25.68982086 -57.88392875 19.38743471 -47.875 13.3125 C-47.26889893 12.94318359 -46.66279785 12.57386719 -46.03833008 12.19335938 C-40.95218534 9.16384988 -35.71103813 6.43252147 -29.875 5.1875 C-26.21077567 4.34571874 -22.74186679 3.1787121 -19.21875 1.87109375 C-12.93475892 0.13106457 -6.47738936 0.00575257 0 0 Z M-30.69921875 9.6796875 C-33.75 11.1875 -33.75 11.1875 -36.95703125 12.1953125 C-39.81424414 13.2103224 -40.74198669 14.03645012 -42.75 16.1875 C-44.32623714 17.05293829 -45.93415768 17.86210536 -47.5625 18.625 C-51.53242309 20.5407187 -55.09272911 22.72096847 -58.75 25.1875 C-59.5234375 25.47238281 -60.296875 25.75726563 -61.09375 26.05078125 C-69.93294261 29.83343573 -81.40750564 39.96317557 -85.96875 48.45703125 C-86.66461909 50.33239846 -87.21805984 52.25921692 -87.75 54.1875 C-88.141875 54.88875 -88.53375 55.59 -88.9375 56.3125 C-90.08487097 58.96027916 -89.87940802 61.34052367 -89.75 64.1875 C-83.44898018 63.22864916 -80.43408285 60.26746657 -75.890625 55.9609375 C-72.07454652 52.47435978 -67.8844642 49.50682537 -63.6875 46.5 C-62.57217896 45.69888794 -62.57217896 45.69888794 -61.43432617 44.8815918 C-59.21631964 43.30183244 -56.98717947 41.73997727 -54.75 40.1875 C-53.96254395 39.64013184 -53.17508789 39.09276367 -52.36376953 38.52880859 C-51.19563721 37.73144287 -51.19563721 37.73144287 -50.00390625 36.91796875 C-49.30724854 36.44125732 -48.61059082 35.9645459 -47.89282227 35.47338867 C-45.75 34.1875 -45.75 34.1875 -43.17163086 33.2043457 C-40.65609751 32.14807023 -39.60241286 31.12898294 -37.75 29.1875 C-36.23097135 28.21670385 -34.68012572 27.29482307 -33.109375 26.41015625 C-32.20316406 25.89646484 -31.29695313 25.38277344 -30.36328125 24.85351562 C-29.41839844 24.32435547 -28.47351563 23.79519531 -27.5 23.25 C-26.57058594 22.72470703 -25.64117187 22.19941406 -24.68359375 21.65820312 C-22.86814779 20.6323606 -21.05129106 19.60900999 -19.23291016 18.58837891 C-17.08497801 17.37649743 -14.95136402 16.1435181 -12.8203125 14.90234375 C-10.487919 13.5996456 -8.37706074 12.56379777 -5.875 11.6875 C-2.64311735 10.54085651 -2.64311735 10.54085651 -1.75 8.0625 C-1.75 7.44375 -1.75 6.825 -1.75 6.1875 C-4.0359956 3.9015044 -9.58923825 4.76057974 -12.74731445 4.72119141 C-19.6042256 4.83962313 -24.53800584 6.62490649 -30.69921875 9.6796875 Z " fill="#E9715E" transform="translate(144.75,32.8125)"/>
<path d="M0 0 C8.80508854 -1.02726033 13.72759099 2.3481841 21 7 C22.3221896 7.68850337 23.65103072 8.36556789 25 9 C26.32 7.35 27.64 5.7 29 4 C29.99 4.33 30.98 4.66 32 5 C31.46632812 5.71800781 30.93265625 6.43601563 30.3828125 7.17578125 C22.68007353 17.87699127 15.58107076 29.58354591 11 42 C9.68 42 8.36 42 7 42 C7.01160156 41.21753906 7.02320313 40.43507812 7.03515625 39.62890625 C7.04417969 38.61699219 7.05320313 37.60507813 7.0625 36.5625 C7.07410156 35.55316406 7.08570313 34.54382813 7.09765625 33.50390625 C7.28612676 31.05978933 7.28612676 31.05978933 6 30 C2.72006383 29.4400109 0.68009435 29.58119863 -2.17578125 31.33984375 C-4.16652375 32.8426245 -6.10232204 34.38167565 -8 36 C-9.87900508 22.88112814 -9.87900508 22.88112814 -7.80078125 18.43359375 C-6.74478031 17.12701632 -5.64475931 15.8545563 -4.5 14.625 C-0.85130152 10.67224332 -0.61549306 5.1291088 0 0 Z " fill="#E32134" transform="translate(204,131)"/>
<path d="M0 0 C-0.721875 0.680625 -1.44375 1.36125 -2.1875 2.0625 C-7.40146538 7.36559299 -10.43637942 11.51884438 -11.15234375 19.08203125 C-11.18942072 21.24317776 -11.18942072 21.24317776 -9 23 C-5.40320934 22.67673447 -5.40320934 22.67673447 -2 22 C-1.36366523 30.83798293 -1.20676133 37.09354372 -6.46875 44.52734375 C-10.18986013 50.53617719 -10.89104166 58.12242353 -12 65 C-12.33 65 -12.66 65 -13 65 C-13.21584948 59.01617266 -12.99717309 53.35031509 -12 47.4375 C-11.07592069 41.95200794 -10.48894725 36.56215553 -11 31 C-12.15016254 29.63777693 -12.15016254 29.63777693 -15.25 29.6875 C-19.78833874 30.0656949 -20.9593095 30.63923682 -24 34 C-27.18734014 39.12784199 -29.81624433 43.79654312 -29 50 C-24.213127 47.10058761 -20.82216787 44.7502456 -19.125 39.25 C-18.94195312 38.49203125 -18.75890625 37.7340625 -18.5703125 36.953125 C-18 35 -18 35 -16 33 C-13.875 33.375 -13.875 33.375 -12 34 C-12.59301309 42.3021832 -15.2140755 48.86341341 -21 55 C-23.82924481 57.15916051 -25.58951003 57.9425314 -29.125 58.4375 C-32 58 -32 58 -33.875 56.5625 C-36.61002673 50.33271688 -35.17884778 44.86747397 -32.9375 38.75 C-27.03248166 24.53482944 -18.47614714 8.18354249 -4.953125 -0.28125 C-3 -1 -3 -1 0 0 Z " fill="#752412" transform="translate(198,131)"/>
<path d="M0 0 C2.41088539 3.61632808 3.13884405 5.23603247 3.125 9.5 C3.12886719 10.69109375 3.12886719 10.69109375 3.1328125 11.90625 C3 14 3 14 2 16 C1.89954258 18.44938821 1.85909698 20.86343544 1.875 23.3125 C1.87790039 24.37597656 1.87790039 24.37597656 1.88085938 25.4609375 C1.93354946 32.00621654 2.40734978 38.48084762 3 45 C-1.62 44.34 -6.24 43.68 -11 43 C-11.33 36.07 -11.66 29.14 -12 22 C-12.66 21.67 -13.32 21.34 -14 21 C-14 20.01 -14 19.02 -14 18 C-10.7 18 -7.4 18 -4 18 C-4 17.34 -4 16.68 -4 16 C-7.3 16 -10.6 16 -14 16 C-14 14.68 -14 13.36 -14 12 C-12.02 12 -10.04 12 -8 12 C-8.33 8.37 -8.66 4.74 -9 1 C-8.01 1 -7.02 1 -6 1 C-6 1.99 -6 2.98 -6 4 C-5.34 4 -4.68 4 -4 4 C-4 3.01 -4 2.02 -4 1 C-3.34 1 -2.68 1 -2 1 C-2 1.99 -2 2.98 -2 4 C-1.34 4 -0.68 4 0 4 C0 2.68 0 1.36 0 0 Z " fill="#0A964F" transform="translate(175,53)"/>
<path d="M0 0 C0.87840996 3.09720845 0.99435406 4.90645403 0 8 C2.64 7.67 5.28 7.34 8 7 C8.125 10.375 8.125 10.375 8 14 C7.34 14.66 6.68 15.32 6 16 C5.73858718 17.96059613 5.48268047 19.92256555 5.28515625 21.890625 C4.90037966 24.73691758 4.0055796 27.3184544 3 30 C2.34 30 1.68 30 1 30 C-0.32 34.62 -1.64 39.24 -3 44 C-4.98 44 -6.96 44 -9 44 C-9.99 44.495 -9.99 44.495 -11 45 C-11.66 44.67 -12.32 44.34 -13 44 C-12.53475058 37.06986689 -10.9506738 31.71184532 -8.1875 25.375 C-4.68593613 17.03064823 -2.03095567 8.81862332 0 0 Z " fill="#6B1F0B" transform="translate(145,90)"/>
<path d="M0 0 C0.52207031 0.26554687 1.04414063 0.53109375 1.58203125 0.8046875 C2.31808594 1.15789062 3.05414063 1.51109375 3.8125 1.875 C4.52019531 2.22304688 5.22789062 2.57109375 5.95703125 2.9296875 C16.08400346 6.49167773 26.94300929 6.5660673 37.56054688 7.10449219 C39.55118955 7.20791452 41.54124033 7.32253928 43.53125 7.4375 C44.70236328 7.49808594 45.87347656 7.55867188 47.08007812 7.62109375 C50 8 50 8 53 10 C53 9.34 53 8.68 53 8 C53.66 8 54.32 8 55 8 C54.77587891 9.8918457 54.77587891 9.8918457 54 12 C47.80435827 15.34199185 40.49693199 15.45244493 33.625 15.3125 C32.70887939 15.3012207 31.79275879 15.28994141 30.84887695 15.27832031 C20.38614112 15.06723246 9.65804104 14.5890895 1.296875 7.5703125 C-0.68123438 5.17513186 -0.19937344 2.99060166 0 0 Z " fill="#91B495" transform="translate(128,258)"/>
<path d="M0 0 C0.33 0 0.66 0 1 0 C1 4.29 1 8.58 1 13 C1.66 13 2.32 13 3 13 C5.81016394 16.9723221 4.98127123 21.19739824 4.57421875 25.78125 C4.50717239 26.63174927 4.44012604 27.48224854 4.37104797 28.35852051 C4.22740783 30.15432607 4.07828624 31.94970045 3.92407227 33.74462891 C3.68843667 36.48909055 3.46869178 39.23445637 3.25195312 41.98046875 C3.11030067 43.72663784 2.9677525 45.47273455 2.82421875 47.21875 C2.75748459 48.03863403 2.69075043 48.85851807 2.62199402 49.70324707 C2.11113282 55.60515551 2.11113282 55.60515551 1.41120911 58.09191895 C0.78463899 60.13664493 0.78463899 60.13664493 2 62.5 C3.10135551 65.25338878 3.00772069 66.27915413 2 69 C-1.16115776 67.63016497 -1.9927092 67.0109362 -4 64 C-3.67873872 61.36565746 -3.18644952 59.37289903 -2 57 C-2.08811445 54.78861145 -2.2429784 52.57957815 -2.4375 50.375 C-2.53933594 49.18648437 -2.64117187 47.99796875 -2.74609375 46.7734375 C-2.82988281 45.85820312 -2.91367188 44.94296875 -3 44 C-3.99 44.495 -3.99 44.495 -5 45 C-5.09908128 39.8222407 -5.17156806 34.64503653 -5.21972656 29.46655273 C-5.23980786 27.70603825 -5.26707879 25.94559018 -5.30175781 24.18530273 C-5.35043112 21.65071198 -5.37300305 19.11700505 -5.390625 16.58203125 C-5.41127014 15.79850784 -5.43191528 15.01498444 -5.45318604 14.2077179 C-5.45527953 9.07737526 -4.50113669 6.69531809 -1 3 C-0.67 2.01 -0.34 1.02 0 0 Z " fill="#941D16" transform="translate(185,177)"/>
<path d="M0 0 C0.495 0.99 0.495 0.99 1 2 C-4.13992501 10.47240386 -9.25758515 16.11723825 -18.3984375 20.140625 C-20.19291605 20.90526276 -20.19291605 20.90526276 -21 23 C-21.99 22.67 -22.98 22.34 -24 22 C-24.23847656 22.54527344 -24.47695312 23.09054688 -24.72265625 23.65234375 C-26.32163352 26.59113683 -28.30355486 28.98704897 -30.4375 31.5625 C-31.21996094 32.51253906 -32.00242188 33.46257812 -32.80859375 34.44140625 C-36.33368936 38.55715959 -36.33368936 38.55715959 -38 40 C-38.66 40 -39.32 40 -40 40 C-35.97937575 26.78649116 -27.40254908 11.07444189 -16 3 C-15.34 3 -14.68 3 -14 3 C-14 4.32 -14 5.64 -14 7 C-7.54972485 6.73672346 -4.52084209 4.49335977 0 0 Z " fill="#E42B3C" transform="translate(266,126)"/>
<path d="M0 0 C0.89464966 0.29583984 0.89464966 0.29583984 1.80737305 0.59765625 C0.8486731 1.13338257 0.8486731 1.13338257 -0.12939453 1.67993164 C-3.08982665 3.33671662 -6.04747618 4.99841154 -9.00512695 6.66015625 C-10.51236328 7.50223633 -10.51236328 7.50223633 -12.05004883 8.36132812 C-22.41685354 14.19473913 -32.33904617 20.57017097 -42.06762695 27.41015625 C-42.9296875 28.01545166 -43.79174805 28.62074707 -44.67993164 29.24438477 C-54.04911172 35.85828393 -63.2908413 42.59899464 -71.7043457 50.41796875 C-73.19262695 51.59765625 -73.19262695 51.59765625 -75.19262695 51.59765625 C-75.52262695 52.58765625 -75.85262695 53.57765625 -76.19262695 54.59765625 C-76.85262695 54.59765625 -77.51262695 54.59765625 -78.19262695 54.59765625 C-78.52262695 55.58765625 -78.85262695 56.57765625 -79.19262695 57.59765625 C-81.90142031 58.95205293 -84.20195963 58.66267076 -87.19262695 58.59765625 C-87.5309483 53.07174091 -86.62362201 49.54968321 -84.19262695 44.59765625 C-83.71825195 43.52515625 -83.24387695 42.45265625 -82.75512695 41.34765625 C-81.17647468 38.56922825 -79.87889806 37.26499693 -77.19262695 35.59765625 C-78.96596029 41.17098958 -78.96596029 41.17098958 -80.25512695 43.59765625 C-81.47783412 46.20609821 -81.80535615 48.75767037 -82.19262695 51.59765625 C-77.59723769 49.59239548 -73.98179928 47.5921434 -70.31762695 44.16015625 C-65.87486696 40.03473626 -61.10831522 36.50476989 -56.19262695 32.97265625 C-55.44513184 32.43455322 -54.69763672 31.8964502 -53.92749023 31.34204102 C-51.6924118 29.7459401 -49.4461674 28.16757105 -47.19262695 26.59765625 C-46.39211914 26.03723633 -45.59161133 25.47681641 -44.7668457 24.89941406 C-43.97922852 24.35897461 -43.19161133 23.81853516 -42.38012695 23.26171875 C-41.67243164 22.77396973 -40.96473633 22.2862207 -40.2355957 21.78369141 C-38.19262695 20.59765625 -38.19262695 20.59765625 -36.1809082 20.18115234 C-33.41798644 19.37032437 -32.17628256 17.65018714 -30.19262695 15.59765625 C-28.64871416 14.58309921 -27.06596091 13.62581134 -25.4543457 12.72265625 C-24.55135742 12.2121875 -23.64836914 11.70171875 -22.71801758 11.17578125 C-21.78151367 10.655 -20.84500977 10.13421875 -19.88012695 9.59765625 C-18.95522461 9.076875 -18.03032227 8.55609375 -17.07739258 8.01953125 C-15.27446615 7.00466435 -13.46840037 5.9953503 -11.65893555 4.9921875 C-10.12352137 4.12401429 -8.60221761 3.229738 -7.10522461 2.296875 C-2.62935913 -0.48248345 -2.62935913 -0.48248345 0 0 Z " fill="#ED8B76" transform="translate(137.192626953125,45.40234375)"/>
<path d="M0 0 C0.66 0.33 1.32 0.66 2 1 C0.45892578 2.14275391 0.45892578 2.14275391 -1.11328125 3.30859375 C-8.48244503 8.79357608 -15.75651562 14.31530672 -22.765625 20.2578125 C-25 22 -25 22 -27.234375 23.0546875 C-29.35908713 23.93210427 -29.35908713 23.93210427 -30 27 C-30.66 27 -31.32 27 -32 27 C-32.268125 27.804375 -32.53625 28.60875 -32.8125 29.4375 C-33.204375 30.283125 -33.59625 31.12875 -34 32 C-35.485 32.495 -35.485 32.495 -37 33 C-37.268125 33.5775 -37.53625 34.155 -37.8125 34.75 C-39.57685376 38.09298607 -41.93862511 39.83902949 -45 42 C-47.875 42.3125 -47.875 42.3125 -50 42 C-50.44314183 34.02344709 -48.73338977 27.07720843 -45 20 C-44.34 20 -43.68 20 -43 20 C-42.7525 19.2575 -42.505 18.515 -42.25 17.75 C-40.90852699 14.79875938 -39.39094474 13.15185026 -37 11 C-37.46865953 14.09315291 -38.21934081 16.49351683 -39.5 19.375 C-40.99721735 22.99327526 -41.60425289 26.12167835 -42 30 C-40.7625 29.773125 -39.525 29.54625 -38.25 29.3125 C-37.55390625 29.18488281 -36.8578125 29.05726562 -36.140625 28.92578125 C-33.15552701 27.63478084 -31.9570323 25.5669678 -30 23 C-28.39581154 21.5564982 -26.74640684 20.16215766 -25.0625 18.8125 C-24.10085937 18.04164062 -23.13921875 17.27078125 -22.1484375 16.4765625 C-21.10004988 15.64965588 -20.05052993 14.82418325 -19 14 C-18.44473633 13.56397461 -17.88947266 13.12794922 -17.31738281 12.67871094 C-11.66792461 8.25753562 -6.00840342 3.92477174 0 0 Z " fill="#E96A5A" transform="translate(92,74)"/>
<path d="M0 0 C0.99 0.33 1.98 0.66 3 1 C3 4.63 3 8.26 3 12 C2.01 12.495 2.01 12.495 1 13 C1.33 13.66 1.66 14.32 2 15 C2.66 14.67 3.32 14.34 4 14 C4 17.3 4 20.6 4 24 C4.66 16.08 5.32 8.16 6 0 C6.33 0 6.66 0 7 0 C7 4.95 7 9.9 7 15 C7.33 15 7.66 15 8 15 C8.05380578 17.79192205 8.09357669 20.5828141 8.125 23.375 C8.15013672 24.56609375 8.15013672 24.56609375 8.17578125 25.78125 C8.19335473 27.85492015 8.10335168 29.92883241 8 32 C6 34 6 34 3.375 34.125 C2.59125 34.08375 1.8075 34.0425 1 34 C1 32.02 1 30.04 1 28 C0.34 29.32 -0.32 30.64 -1 32 C-1 30.02 -1 28.04 -1 26 C-1.66 28.31 -2.32 30.62 -3 33 C-3.66 32.34 -4.32 31.68 -5 31 C-5.99 31.66 -6.98 32.32 -8 33 C-11.6875 32.625 -11.6875 32.625 -15 32 C-14.67 31.34 -14.34 30.68 -14 30 C-12.02 30.33 -10.04 30.66 -8 31 C-7.896875 30.05125 -7.79375 29.1025 -7.6875 28.125 C-7.0089081 23.26508446 -5.4914524 18.66196126 -4 14 C-3.34 14 -2.68 14 -2 14 C-0.4087311 9.126739 0.21192221 5.19209404 0 0 Z " fill="#C11D25" transform="translate(150,103)"/>
<path d="M0 0 C2.41088539 3.61632808 3.13884405 5.23603247 3.125 9.5 C3.12886719 10.69109375 3.12886719 10.69109375 3.1328125 11.90625 C3 14 3 14 2 16 C1.89954258 18.44938821 1.85909698 20.86343544 1.875 23.3125 C1.87790039 24.37597656 1.87790039 24.37597656 1.88085938 25.4609375 C1.93350523 32.00072254 2.37577277 38.49020176 3 45 C1.515 44.505 1.515 44.505 0 44 C0.66 44 1.32 44 2 44 C1.855625 43.3915625 1.71125 42.783125 1.5625 42.15625 C-0.22443106 33.71796444 -0.19362962 25.57348917 0 17 C-1.32 17.33 -2.64 17.66 -4 18 C-4 17.34 -4 16.68 -4 16 C-7.3 16 -10.6 16 -14 16 C-14 14.68 -14 13.36 -14 12 C-12.02 12 -10.04 12 -8 12 C-8.33 8.37 -8.66 4.74 -9 1 C-8.01 1 -7.02 1 -6 1 C-6 1.99 -6 2.98 -6 4 C-5.34 4 -4.68 4 -4 4 C-4 3.01 -4 2.02 -4 1 C-3.34 1 -2.68 1 -2 1 C-2 1.99 -2 2.98 -2 4 C-1.34 4 -0.68 4 0 4 C0 2.68 0 1.36 0 0 Z " fill="#148B4D" transform="translate(175,53)"/>
<path d="M0 0 C2.43926741 2.43926741 2.32240519 3.20169186 2.375 6.5625 C2.29496339 12.06101479 0.58855073 16.21580356 -2 21 C-2.99 21 -3.98 21 -5 21 C-4.71125 20.29875 -4.4225 19.5975 -4.125 18.875 C-1.48238424 12.14383973 -1.48238424 12.14383973 -1 5 C-2.97003426 5.13581327 -2.97003426 5.13581327 -5 6 C-6.03419377 8.11990362 -6.03419377 8.11990362 -6.6875 10.6875 C-8.83242603 16.74018602 -12.46271616 19.08937644 -18 22 C-18.72620878 15.31887919 -16.59473721 10.60022218 -13 5 C-9.3244733 0.47627483 -5.83503445 -0.78548541 0 0 Z " fill="#F6F1F0" transform="translate(186,160)"/>
<path d="M0 0 C0.66 0 1.32 0 2 0 C2.69828677 11.99556916 3.12196515 23.98445981 3.17724609 36.00042725 C3.18736229 37.9731464 3.20689748 39.94580996 3.2265625 41.91845703 C3.22785156 43.14161621 3.22914063 44.36477539 3.23046875 45.625 C3.23457764 46.71039063 3.23868652 47.79578125 3.24291992 48.9140625 C2.80256408 54.50813066 0.57728734 59.07972416 -2 64 C-3.2077558 60.37673261 -2.54311128 59.35853631 -1 56 C-0.34 56 0.32 56 1 56 C0.505 48.575 0.505 48.575 0 41 C-0.99 41.495 -0.99 41.495 -2 42 C-2.91147803 35.8475233 -3.13828354 29.77238714 -3.1875 23.5625 C-3.20039063 22.75699707 -3.21328125 21.95149414 -3.2265625 21.12158203 C-3.23002265 19.07966057 -3.12308543 17.03821128 -3 15 C-2.34 14.34 -1.68 13.68 -1 13 C-0.53513282 9.87803664 -0.53513282 9.87803664 -0.375 6.375 C-0.30023438 5.18648437 -0.22546875 3.99796875 -0.1484375 2.7734375 C-0.09945312 1.85820312 -0.05046875 0.94296875 0 0 Z " fill="#B91F24" transform="translate(147,180)"/>
<path d="M0 0 C0.87301758 0.00410889 1.74603516 0.00821777 2.64550781 0.01245117 C3.60457031 0.01438477 4.56363281 0.01631836 5.55175781 0.01831055 C7.05996094 0.03667969 7.05996094 0.03667969 8.59863281 0.05541992 C9.58863281 0.05606445 10.57863281 0.05670898 11.59863281 0.05737305 C16.45252175 0.08657425 21.07914125 0.2289974 25.84863281 1.24291992 C25.84863281 2.23291992 25.84863281 3.22291992 25.84863281 4.24291992 C23.26139293 5.53653987 21.36750278 5.37240941 18.47363281 5.37573242 C17.40628906 5.37702148 16.33894531 5.37831055 15.23925781 5.37963867 C14.12035156 5.37577148 13.00144531 5.3719043 11.84863281 5.36791992 C10.72972656 5.37178711 9.61082031 5.3756543 8.45800781 5.37963867 C6.85699219 5.37770508 6.85699219 5.37770508 5.22363281 5.37573242 C4.24136719 5.37460449 3.25910156 5.37347656 2.24707031 5.37231445 C-0.15136719 5.24291992 -0.15136719 5.24291992 -2.15136719 4.24291992 C-1.82136719 5.56291992 -1.49136719 6.88291992 -1.15136719 8.24291992 C1.6112757 8.84024811 4.0089605 9.24291992 6.84863281 9.24291992 C6.84863281 10.56291992 6.84863281 11.88291992 6.84863281 13.24291992 C4.53863281 13.24291992 2.22863281 13.24291992 -0.15136719 13.24291992 C-0.48136719 14.23291992 -0.81136719 15.22291992 -1.15136719 16.24291992 C-1.48136719 15.58291992 -1.81136719 14.92291992 -2.15136719 14.24291992 C-2.48136719 16.88291992 -2.81136719 19.52291992 -3.15136719 22.24291992 C-3.48136719 22.24291992 -3.81136719 22.24291992 -4.15136719 22.24291992 C-4.20927072 18.95132676 -4.2449298 15.65986389 -4.27636719 12.36791992 C-4.293125 11.43077148 -4.30988281 10.49362305 -4.32714844 9.52807617 C-4.33681641 8.18422852 -4.33681641 8.18422852 -4.34667969 6.81323242 C-4.35715332 5.98581543 -4.36762695 5.15839844 -4.37841797 4.3059082 C-4.04599872 1.2855398 -2.99673555 0.33837402 0 0 Z " fill="#E95763" transform="translate(149.1513671875,44.757080078125)"/>
<path d="M0 0 C0.99 0 1.98 0 3 0 C3.625 3.375 3.625 3.375 4 7 C3.34 7.66 2.68 8.32 2 9 C1.28072705 11.31765729 0.6090107 13.65095874 0 16 C0.99 16.33 1.98 16.66 3 17 C-6.89853584 21.73408236 -16.5109306 22.32954543 -27.40698242 22.26074219 C-29.45846227 22.2498891 -31.50909127 22.26076366 -33.56054688 22.2734375 C-34.85927734 22.27085937 -36.15800781 22.26828125 -37.49609375 22.265625 C-38.67357178 22.26336914 -39.8510498 22.26111328 -41.06420898 22.25878906 C-44 22 -44 22 -47 20 C-46.1435791 20.01571045 -45.2871582 20.0314209 -44.40478516 20.04760742 C-41.1805247 20.0992043 -37.956477 20.13657546 -34.73193359 20.16479492 C-33.34514373 20.17973947 -31.95839993 20.20010278 -30.57177734 20.22631836 C-18.41710241 20.62944588 -18.41710241 20.62944588 -7 17 C-6.505 15.515 -6.505 15.515 -6 14 C-6.66 14 -7.32 14 -8 14 C-8 14.66 -8 15.32 -8 16 C-12.29 15.34 -16.58 14.68 -21 14 C-21 13.67 -21 13.34 -21 13 C-19.33710938 12.80083984 -19.33710938 12.80083984 -17.640625 12.59765625 C-16.1770673 12.41940243 -14.71352651 12.24100972 -13.25 12.0625 C-12.15558594 11.93198242 -12.15558594 11.93198242 -11.0390625 11.79882812 C-7.62415558 11.37972591 -4.32396457 10.882726 -1 10 C-1.01160156 9.36191406 -1.02320313 8.72382813 -1.03515625 8.06640625 C-1.04417969 7.24011719 -1.05320313 6.41382813 -1.0625 5.5625 C-1.07410156 4.73878906 -1.08570313 3.91507813 -1.09765625 3.06640625 C-1 1 -1 1 0 0 Z " fill="#6F220E" transform="translate(189,252)"/>
<path d="M0 0 C-0.56396484 0.32685791 -1.12792969 0.65371582 -1.70898438 0.99047852 C-4.31129961 2.5055652 -6.9055933 4.03391347 -9.5 5.5625 C-10.386875 6.07619141 -11.27375 6.58988281 -12.1875 7.11914062 C-18.03518778 10.58045582 -22.99636997 14.42316271 -28 19 C-29.63511802 20.30520466 -31.27919685 21.59938219 -32.9375 22.875 C-40.05237464 28.52311587 -46.35031876 34.8923365 -52 42 C-52.80078125 40.35546875 -52.80078125 40.35546875 -53 38 C-51.46454882 35.88224199 -50.00342806 34.16245083 -48.1875 32.3125 C-47.6826709 31.78358154 -47.1778418 31.25466309 -46.65771484 30.7097168 C-38.21090762 21.96019927 -29.22007342 14.60909124 -19 8 C-18.34676758 7.57557617 -17.69353516 7.15115234 -17.02050781 6.71386719 C-15.00374274 5.41592999 -12.9741459 4.14147315 -10.9375 2.875 C-10.30626221 2.47216797 -9.67502441 2.06933594 -9.0246582 1.65429688 C-5.53676146 -0.46488388 -3.87862382 -1.28743573 0 0 Z " fill="#E96C5D" transform="translate(108,43)"/>
<path d="M0 0 C0.33 0.66 0.66 1.32 1 2 C-4.10962938 10.42246601 -9.30089172 16.9371237 -19 20 C-21.72381638 20.21579531 -24.26015767 20.14420223 -27 20 C-22.20806902 11.37452423 -22.20806902 11.37452423 -18.93359375 10.359375 C-17.69802734 10.05773437 -17.69802734 10.05773437 -16.4375 9.75 C-10.06473853 7.94638826 -4.68597145 4.68597145 0 0 Z " fill="#FCEFF0" transform="translate(266,126)"/>
<path d="M0 0 C0.66 0.66 1.32 1.32 2 2 C1.97477456 4.90832278 1.82770683 7.6954476 1.57421875 10.5859375 C1.50717239 11.43926666 1.44012604 12.29259583 1.37104797 13.17178345 C1.22704718 14.97951015 1.07791038 16.78683387 0.92407227 18.59375 C0.68911618 21.35599944 0.46911504 24.11911286 0.25195312 26.8828125 C0.11025229 28.63809188 -0.03229807 30.39330292 -0.17578125 32.1484375 C-0.24251541 32.97459564 -0.30924957 33.80075378 -0.37800598 34.65194702 C-0.44444809 35.42599884 -0.5108902 36.20005066 -0.5793457 36.99755859 C-0.63645218 37.67547455 -0.69355865 38.3533905 -0.75239563 39.05184937 C-1 41 -1 41 -1.58879089 43.09390259 C-2.215335 45.13692472 -2.215335 45.13692472 -1 47.5 C0.10135551 50.25338878 0.00772069 51.27915413 -1 54 C-4.16115776 52.63016497 -4.9927092 52.0109362 -7 49 C-6.67873872 46.36565746 -6.18644952 44.37289903 -5 42 C-4.95344956 39.64629361 -4.96230046 37.29136479 -5 34.9375 C-5.06044169 29.20584243 -4.79696782 23.67839573 -4 18 C-3.01 18 -2.02 18 -1 18 C-1.020625 16.700625 -1.04125 15.40125 -1.0625 14.0625 C-1.07004972 9.30617675 -0.59887117 4.71611047 0 0 Z " fill="#C91E29" transform="translate(188,192)"/>
<path d="M0 0 C1.56240032 -0.02730408 3.1249427 -0.04653226 4.6875 -0.0625 C5.55761719 -0.07410156 6.42773438 -0.08570312 7.32421875 -0.09765625 C9.98808557 -0.00043483 12.40573189 0.40635667 15 1 C15.50505263 3.89503383 16.0042022 6.79087953 16.5 9.6875 C16.64308594 10.50412109 16.78617188 11.32074219 16.93359375 12.16210938 C17.61165962 16.14978248 18.19858392 19.93730404 18 24 C17 22 16 20 15 18 C15 18.99 15 19.98 15 21 C14.71372955 23.67356157 14.34968449 26.33365575 14 29 C13.67 29 13.34 29 13 29 C11.67611771 22.56971459 10.75205598 16.5705166 11 10 C11.66 10 12.32 10 13 10 C13 8.68 13 7.36 13 6 C8.71 6 4.42 6 0 6 C0 4.02 0 2.04 0 0 Z " fill="#BB1D23" transform="translate(159,96)"/>
<path d="M0 0 C0.66 1.32 1.32 2.64 2 4 C2.66 3.01 3.32 2.02 4 1 C4.05012236 6.01300667 4.08605439 11.02586167 4.10986328 16.0390625 C4.11980786 17.73798164 4.13336831 19.43688419 4.15087891 21.13574219 C4.37599766 43.56816431 4.37599766 43.56816431 2 52 C-1 54 -1 54 -5 54 C-4.52338232 49.13849961 -3.58780616 46.09735975 -1 42 C0.24576112 37.52260929 0.12801683 33.0269425 0.09765625 28.41796875 C0.0962413 27.60378983 0.09482635 26.7896109 0.09336853 25.95075989 C0.08779317 23.36296844 0.07524524 20.77526508 0.0625 18.1875 C0.05748181 16.42773563 0.05291946 14.66796989 0.04882812 12.90820312 C0.03783181 8.60543506 0.02058421 4.30273244 0 0 Z " fill="#7F1C0F" transform="translate(149,195)"/>
<path d="M0 0 C0.66 0 1.32 0 2 0 C2.33 0.66 2.66 1.32 3 2 C5.52733235 2.65555119 5.52733235 2.65555119 8 3 C8 3.66 8 4.32 8 5 C10.97 5.33 13.94 5.66 17 6 C17 10.29 17 14.58 17 19 C15.88625 18.0925 14.7725 17.185 13.625 16.25 C9.0941831 12.82346822 4.33503689 10.85851695 -1 9 C-0.67 6.03 -0.34 3.06 0 0 Z " fill="#721F0D" transform="translate(129,174)"/>
<path d="M0 0 C1.32 0 2.64 0 4 0 C5.125 3.75 5.125 3.75 4 6 C3.80680199 8.30120301 3.6828131 10.59955632 3.57421875 12.90625 C3 15 3 15 1.33203125 16.21875 C-6.03520883 18.68683713 -13.83050268 18.2199824 -21.5 18.25 C-22.78648437 18.270625 -24.07296875 18.29125 -25.3984375 18.3125 C-46.99848957 18.39942174 -46.99848957 18.39942174 -52.88867188 13.39550781 C-53.25541016 12.93499023 -53.62214844 12.47447266 -54 12 C-53.05253906 12.29003906 -53.05253906 12.29003906 -52.0859375 12.5859375 C-44.46456316 14.8042626 -36.86981571 16.02345353 -29 17 C-28.67 16.01 -28.34 15.02 -28 14 C-27.01 14.33 -26.02 14.66 -25 15 C-25.33 15.33 -25.66 15.66 -26 16 C-17.83759432 16.33853295 -10.04927976 15.29901921 -2 14 C-2 13.01 -2 12.02 -2 11 C-1.34 11 -0.68 11 0 11 C-0.66 10.01 -1.32 9.02 -2 8 C-2.37569856 4.24301443 -2.1642235 3.24633524 0 0 Z " fill="#DA1C2D" transform="translate(185,247)"/>
<path d="M0 0 C0.66 0.33 1.32 0.66 2 1 C1.07960937 1.66644531 0.15921875 2.33289063 -0.7890625 3.01953125 C-7.52130566 7.91375379 -14.2002496 12.86323142 -20.75 18 C-21.33346191 18.45608643 -21.91692383 18.91217285 -22.51806641 19.38208008 C-24.70548238 21.1086985 -26.81916307 22.81436209 -28.765625 24.8125 C-30 26 -30 26 -32 26 C-32.33 26.99 -32.66 27.98 -33 29 C-33.66 29 -34.32 29 -35 29 C-35.33 29.99 -35.66 30.98 -36 32 C-38.97 32.495 -38.97 32.495 -42 33 C-42.08153933 31.41753293 -42.13943557 29.83383727 -42.1875 28.25 C-42.22230469 27.36828125 -42.25710937 26.4865625 -42.29296875 25.578125 C-41.94533308 22.51893112 -40.95735332 21.31817855 -39 19 C-38.690625 18.154375 -38.38125 17.30875 -38.0625 16.4375 C-36.83832039 13.62908794 -35.554023 12.6175479 -33 11 C-34.77333333 16.57333333 -34.77333333 16.57333333 -36.0625 19 C-37.28520717 21.60844196 -37.6127292 24.16001412 -38 27 C-33.40461074 24.99473923 -29.78917233 22.99448715 -26.125 19.5625 C-18.19729718 12.17912889 -9.00363602 6.00242401 0 0 Z " fill="#F1A996" transform="translate(93,70)"/>
<path d="M0 0 C3.94804948 0.64591251 7.32929179 1.85965731 11 3.4375 C15.26522083 5.27184281 15.26522083 5.27184281 19.60546875 6.9140625 C22.42201898 8.1913887 24.14301793 9.74350401 26.3125 11.9375 C27.00988281 12.62714844 27.70726563 13.31679688 28.42578125 14.02734375 C30 16 30 16 30 19 C18.93795217 15.68138565 8.45155911 8.80892904 0 1 C0 0.67 0 0.34 0 0 Z " fill="#C61D29" transform="translate(75,263)"/>
<path d="M0 0 C1.84765625 0.07421875 1.84765625 0.07421875 4 1 C5.02493442 3.31604583 5.75847743 5.39501425 6.4375 7.8125 C6.85293007 9.17565558 7.27226806 10.53762573 7.6953125 11.8984375 C7.90704102 12.58389648 8.11876953 13.26935547 8.33691406 13.97558594 C9.90738271 18.7702568 11.97893631 23.38165447 14 28 C9.25 31 9.25 31 7 31 C5.99856118 27.06843948 5.00177656 23.13573137 4.00927734 19.2019043 C3.67103529 17.86401591 3.33152641 16.52644712 2.99072266 15.18920898 C2.50089381 13.26630945 2.01600603 11.34215339 1.53125 9.41796875 C1.23798828 8.26063232 0.94472656 7.1032959 0.64257812 5.91088867 C0 3 0 3 0 0 Z " fill="#B22223" transform="translate(176,99)"/>
<path d="M0 0 C0.99 0.33 1.98 0.66 3 1 C4.62567079 1.14715199 6.25586857 1.24721867 7.88671875 1.31640625 C8.82451172 1.35830078 9.76230469 1.40019531 10.72851562 1.44335938 C11.70498047 1.48267578 12.68144531 1.52199219 13.6875 1.5625 C15.16959961 1.62727539 15.16959961 1.62727539 16.68164062 1.69335938 C19.12095546 1.79941654 21.56037113 1.90147714 24 2 C24 2.33 24 2.66 24 3 C21.69 3.33 19.38 3.66 17 4 C17 4.66 17 5.32 17 6 C15.35 6 13.7 6 12 6 C12 7.32 12 8.64 12 10 C12.99 10 13.98 10 15 10 C15.042721 11.66611905 15.04063832 13.33382885 15 15 C14 16 14 16 10.4375 16.0625 C9.303125 16.041875 8.16875 16.02125 7 16 C7 14.02 7 12.04 7 10 C7.99 10 8.98 10 10 10 C10 8.68 10 7.36 10 6 C9.01 6 8.02 6 7 6 C6.67 6.99 6.34 7.98 6 9 C6 8.01 6 7.02 6 6 C5.01 6 4.02 6 3 6 C2.67 6.99 2.34 7.98 2 9 C0.50178941 5.62902617 0 3.79557881 0 0 Z " fill="#E5EEE5" transform="translate(146,48)"/>
<path d="M0 0 C0.99 0 1.98 0 3 0 C4.87926676 6.31146495 5.23025848 11.86210398 5.046875 18.421875 C5.02659241 19.4031134 5.00630981 20.38435181 4.9854126 21.39532471 C4.94004152 23.46289087 4.88930832 25.53034559 4.83349609 27.59765625 C4.75062461 30.72641839 4.68847881 33.85509222 4.62890625 36.984375 C4.41162405 46.79730887 4.18557585 56.39073422 2 66 C1.67 66 1.34 66 1 66 C1.33 60.72 1.66 55.44 2 50 C1.67 50 1.34 50 1 50 C-0.19388403 15.51072249 -0.19388403 15.51072249 0 0 Z " fill="#CA1D28" transform="translate(150,181)"/>
<path d="M0 0 C4.62 0 9.24 0 14 0 C14 0.33 14 0.66 14 1 C10.7 1 7.4 1 4 1 C4.01160156 1.99902344 4.02320313 2.99804688 4.03515625 4.02734375 C4.04417969 5.31769531 4.05320313 6.60804687 4.0625 7.9375 C4.07410156 9.22527344 4.08570313 10.51304688 4.09765625 11.83984375 C4 15 4 15 3 16 C2.76472227 18.34987262 2.58613583 20.70556039 2.4375 23.0625 C2.35371094 24.35285156 2.26992187 25.64320312 2.18359375 26.97265625 C2.12300781 27.97167969 2.06242188 28.97070312 2 30 C1.67 30 1.34 30 1 30 C1 24.39 1 18.78 1 13 C0.34 19.27 -0.32 25.54 -1 32 C-1.33 32 -1.66 32 -2 32 C-2 28.04 -2 24.08 -2 20 C-2.99 20 -3.98 20 -5 20 C-4.85962479 18.18706911 -4.71255111 16.3746557 -4.5625 14.5625 C-4.48128906 13.55316406 -4.40007812 12.54382813 -4.31640625 11.50390625 C-4 9 -4 9 -3 8 C-3 6.68 -3 5.36 -3 4 C-2.01 4 -1.02 4 0 4 C0 2.68 0 1.36 0 0 Z " fill="#851D11" transform="translate(155,102)"/>
<path d="M0 0 C1.65 0 3.3 0 5 0 C5 8.25 5 16.5 5 25 C3.68 25 2.36 25 1 25 C1 27.31 1 29.62 1 32 C0.67 32 0.34 32 0 32 C0 21.44 0 10.88 0 0 Z " fill="#E9F4E6" transform="translate(154,70)"/>
<path d="M0 0 C0.33 0 0.66 0 1 0 C1.125 2.375 1.125 2.375 1 5 C0.34 5.66 -0.32 6.32 -1 7 C-0.71125168 9.46857104 -0.71125168 9.46857104 0.1171875 12.26953125 C0.39433594 13.32333984 0.67148438 14.37714844 0.95703125 15.46289062 C1.25996094 16.56826172 1.56289062 17.67363281 1.875 18.8125 C2.46112352 20.9842284 3.04204808 23.15736814 3.6171875 25.33203125 C3.88128418 26.29858643 4.14538086 27.2651416 4.41748047 28.26098633 C4.98554409 30.93202814 5.10958276 33.27931396 5 36 C3.68 36.66 2.36 37.32 1 38 C0.28157153 33.83846489 -0.43028025 29.67587259 -1.13623047 25.51220703 C-1.37696675 24.09784097 -1.61945375 22.68377167 -1.86376953 21.27001953 C-2.21594781 19.23026042 -2.56168081 17.18949405 -2.90625 15.1484375 C-3.22045898 13.31031494 -3.22045898 13.31031494 -3.54101562 11.43505859 C-3.96820073 8.23798709 -4.08621116 5.21998673 -4 2 C-2.68 2.33 -1.36 2.66 0 3 C0 2.01 0 1.02 0 0 Z " fill="#624223" transform="translate(178,95)"/>
<path d="M0 0 C-0.73917954 3.9521466 -2.52283953 7.37693861 -4.3125 10.9375 C-4.60833984 11.54529297 -4.90417969 12.15308594 -5.20898438 12.77929688 C-7.09858421 16.56257775 -9.13150955 19.88310419 -12 23 C-12.66 23 -13.32 23 -14 23 C-14.40474368 17.84730168 -13.24832104 14.85728187 -10.75 10.375 C-10.14671875 9.26898438 -9.5434375 8.16296875 -8.921875 7.0234375 C-4.45736434 0 -4.45736434 0 0 0 Z " fill="#752D1A" transform="translate(142,147)"/>
<path d="M0 0 C-0.15900938 7.05423432 -1.15324337 12.62963254 -6 18 C-8.8125 19.5 -8.8125 19.5 -11 20 C-11.33 19.67 -11.66 19.34 -12 19 C-11.70281593 13.94787073 -6.89235689 0 0 0 Z " fill="#E02435" transform="translate(201,132)"/>
<path d="M0 0 C0.99 0 1.98 0 3 0 C2.39534321 4.8093471 0.35519214 8.50384408 -1.9375 12.6875 C-2.29779297 13.36361328 -2.65808594 14.03972656 -3.02929688 14.73632812 C-4.49883226 17.45618644 -5.80233948 19.80233948 -8 22 C-8.99 22 -9.98 22 -11 22 C-10.3447203 13.69979048 -5.81696586 5.81696586 0 0 Z " fill="#E42A3B" transform="translate(246,164)"/>
<path d="M0 0 C0.66 0 1.32 0 2 0 C1.855625 0.66386719 1.71125 1.32773438 1.5625 2.01171875 C1.376875 2.89472656 1.19125 3.77773437 1 4.6875 C0.814375 5.55761719 0.62875 6.42773438 0.4375 7.32421875 C0.01027953 9.93712964 -0.07616201 12.35813038 0 15 C3.91211733 13.84414715 6.8745041 12.64465038 10 10 C10.66 10.33 11.32 10.66 12 11 C11.38125 11.2475 10.7625 11.495 10.125 11.75 C7.88950792 12.80004165 7.88950792 12.80004165 7.125 14.8125 C5.41203658 18.14326221 3.02842396 19.86228897 0 22 C-2.875 22.3125 -2.875 22.3125 -5 22 C-5.44314183 14.02344709 -3.73338977 7.07720843 0 0 Z " fill="#E54540" transform="translate(47,94)"/>
<path d="M0 0 C1.32 0.33 2.64 0.66 4 1 C4.4162165 21.48710111 4.4162165 21.48710111 1 29 C0.01 29 -0.98 29 -2 29 C-1.34 19.43 -0.68 9.86 0 0 Z " fill="#46A666" transform="translate(147,69)"/>
<path d="M0 0 C0.33 1.32 0.66 2.64 1 4 C1.66 4 2.32 4 3 4 C1.67177141 11.43808012 -1.23310044 16.81811135 -7.0625 21.7421875 C-9 23 -9 23 -11.125 22.8125 C-13 22 -13 22 -15 20 C-15.046875 17.90625 -15.046875 17.90625 -14.75 15.5 C-14.66234375 14.7059375 -14.5746875 13.911875 -14.484375 13.09375 C-14 11 -14 11 -12 9 C-11.34 9 -10.68 9 -10 9 C-10.33 12.3 -10.66 15.6 -11 19 C-8.55519921 18.81171228 -8.55519921 18.81171228 -6 18 C-4.73121406 16.3892395 -4.73121406 16.3892395 -4 14 C-3.75378906 13.39542969 -3.50757813 12.79085937 -3.25390625 12.16796875 C-1.64121894 8.13239238 -0.54232036 4.3385629 0 0 Z " fill="#F2E8E6" transform="translate(201,132)"/>
<path d="M0 0 C1.32 0.33 2.64 0.66 4 1 C3.7834375 2.74796875 3.7834375 2.74796875 3.5625 4.53125 C1.99578778 18.05356832 1.77106158 31.39753581 2 45 C-0.35119399 41.47320901 -0.21443452 39.97120515 -0.125 35.8125 C-0.10695312 34.72582031 -0.08890625 33.63914063 -0.0703125 32.51953125 C-0.04710937 31.68808594 -0.02390625 30.85664063 0 30 C-0.66 30 -1.32 30 -2 30 C-1.34 20.1 -0.68 10.2 0 0 Z " fill="#751D0C" transform="translate(189,194)"/>
<path d="M0 0 C0.66 0 1.32 0 2 0 C2.02578125 0.73863281 2.0515625 1.47726563 2.078125 2.23828125 C2.44884154 8.86905206 3.54038871 14.37969749 6.0625 20.52734375 C8.63477107 27.3117087 9.2913394 34.87926313 6.5 41.625 C6.005 42.40875 5.51 43.1925 5 44 C4.01 44 3.02 44 2 44 C2.75 37.25 2.75 37.25 5 35 C6.38013553 28.09932233 4.13403746 21.9570788 1.79003906 15.56347656 C-0.09674714 10.23527945 -0.59212726 5.59231303 0 0 Z " fill="#837D61" transform="translate(187,224)"/>
<path d="M0 0 C0.94552734 -0.01224609 1.89105469 -0.02449219 2.86523438 -0.03710938 C3.77724609 -0.03904297 4.68925781 -0.04097656 5.62890625 -0.04296875 C6.45592041 -0.04707764 7.28293457 -0.05118652 8.13500977 -0.05541992 C10.64223181 0.20909985 12.27073384 0.93089391 14.4375 2.1875 C14.07804253 4.79356665 13.66962513 5.96397209 11.75 7.8125 C9.07074163 9.40557255 6.41988984 10.30633937 3.4375 11.1875 C4.0975 10.1975 4.7575 9.2075 5.4375 8.1875 C6.4275 8.1875 7.4175 8.1875 8.4375 8.1875 C8.17073796 6.20258358 8.17073796 6.20258358 7.4375 4.1875 C4.49618109 3.20706036 2.61248335 3.07128798 -0.44921875 3.08984375 C-1.38701172 3.09306641 -2.32480469 3.09628906 -3.29101562 3.09960938 C-4.75571289 3.11217773 -4.75571289 3.11217773 -6.25 3.125 C-7.23806641 3.12951172 -8.22613281 3.13402344 -9.24414062 3.13867188 C-11.68365474 3.15045697 -14.12304689 3.16690989 -16.5625 3.1875 C-16.2325 2.5275 -15.9025 1.8675 -15.5625 1.1875 C-10.44436696 -0.20805204 -5.26357345 0.00360272 0 0 Z " fill="#E43839" transform="translate(148.5625,30.8125)"/>
<path d="M0 0 C-2.20486819 0.98766013 -4.41337311 1.96518516 -6.625 2.9375 C-7.24246094 3.21529297 -7.85992187 3.49308594 -8.49609375 3.77929688 C-12.32426694 5.45160411 -15.85424076 6.4961308 -20 7 C-20.33 7.99 -20.66 8.98 -21 10 C-23.51171875 11.46484375 -23.51171875 11.46484375 -26.6875 12.9375 C-31.0673376 15.03084312 -35.06961704 17.16139008 -39 20 C-39.66 19.67 -40.32 19.34 -41 19 C-36.12510416 14.61835906 -31.21845772 11.04888443 -25.5625 7.75 C-24.85029297 7.316875 -24.13808594 6.88375 -23.40429688 6.4375 C-18.64715087 3.63765385 -14.39368199 2.15289228 -9 1 C-8.0925 0.608125 -7.185 0.21625 -6.25 -0.1875 C-3.63628776 -1.13134053 -2.59793893 -0.76955754 0 0 Z " fill="#EE8F7B" transform="translate(125,39)"/>
<path d="M0 0 C2 1 4 2 6 3 C5.67566492 8.35152885 2.50295176 11.28280043 -1 15 C-1.99 14.67 -2.98 14.34 -4 14 C-3.66009167 8.62007164 -3.31442207 4.46726453 0 0 Z " fill="#E42A3B" transform="translate(200,172)"/>
<path d="M0 0 C2.4375 0.75 2.4375 0.75 5 2 C5.828125 3.81640625 5.828125 3.81640625 6 6 C4.92578125 8.10546875 4.92578125 8.10546875 3.3125 10.1875 C2.53326172 11.22970703 2.53326172 11.22970703 1.73828125 12.29296875 C-0.1820006 14.17872868 -1.37279968 14.61650889 -4 15 C-4.50610724 8.92671312 -3.04157942 5.22771463 0 0 Z " fill="#E32739" transform="translate(86,155)"/>
<path d="M0 0 C0.68513672 -0.00386719 1.37027344 -0.00773437 2.07617188 -0.01171875 C7.1841133 -0.00169335 7.1841133 -0.00169335 9.4375 1.125 C9.3125 3.4375 9.3125 3.4375 8.4375 6.125 C5.5 8 5.5 8 2.4375 9.125 C1.7775 8.795 1.1175 8.465 0.4375 8.125 C0.7675 6.805 1.0975 5.485 1.4375 4.125 C-3.5125 3.795 -8.4625 3.465 -13.5625 3.125 C-8.99136967 0.07757978 -5.31800617 -0.03018736 0 0 Z " fill="#ED8E7A" transform="translate(140.5625,34.875)"/>
<path d="M0 0 C1.16982422 0.00290039 1.16982422 0.00290039 2.36328125 0.00585938 C3.17410156 0.01810547 3.98492187 0.03035156 4.8203125 0.04296875 C5.62339844 0.04361328 6.42648438 0.04425781 7.25390625 0.04492188 C11.27486199 0.07473127 15.02268239 0.2379004 18.9453125 1.23046875 C18.9453125 1.89046875 18.9453125 2.55046875 18.9453125 3.23046875 C14.22164404 4.15595238 9.61978183 4.41351655 4.8203125 4.41796875 C4.11777344 4.43021484 3.41523438 4.44246094 2.69140625 4.45507812 C-1.05839155 4.46571082 -3.87377716 4.31536594 -7.0546875 2.23046875 C-4.00826367 0.19951953 -3.41912082 -0.01988314 0 0 Z " fill="#FDF4F5" transform="translate(155.0546875,44.76953125)"/>
<path d="M0 0 C0 1.32 0 2.64 0 4 C0.99 4.33 1.98 4.66 3 5 C0.75670397 7.24329603 -0.37060744 7.47145309 -3.375 8.25 C-8.07269168 9.71567981 -9.53504884 11.7091591 -12 16 C-14.25 17.375 -14.25 17.375 -16 18 C-14.61697836 14.02203055 -12.77149402 11.14067376 -10.125 7.875 C-9.44695312 7.02679688 -8.76890625 6.17859375 -8.0703125 5.3046875 C-3.30508475 0 -3.30508475 0 0 0 Z " fill="#E42F40" transform="translate(252,129)"/>
<path d="M0 0 C1.32 0.33 2.64 0.66 4 1 C3.67 9.25 3.34 17.5 3 26 C2.34 26.33 1.68 26.66 1 27 C-0.3300103 18.02243049 -0.08788039 9.05168034 0 0 Z " fill="#B61D21" transform="translate(144,195)"/>
<path d="M0 0 C-3.62259102 2.06675204 -7.24850911 4.12759984 -10.875 6.1875 C-11.88820313 6.76564453 -12.90140625 7.34378906 -13.9453125 7.93945312 C-18.80287707 10.69518687 -23.67787702 13.41096594 -28.6328125 15.98828125 C-29.4283252 16.40247314 -30.22383789 16.81666504 -31.04345703 17.2434082 C-32.0119458 17.61792114 -32.0119458 17.61792114 -33 18 C-33.66 17.67 -34.32 17.34 -35 17 C-30.0167784 13.97140411 -25.01376647 10.97771917 -20 8 C-19.26861816 7.56252441 -18.53723633 7.12504883 -17.78369141 6.67431641 C-15.63424263 5.39437186 -13.47509128 4.13258294 -11.3125 2.875 C-10.6421875 2.47289307 -9.971875 2.07078613 -9.28125 1.65649414 C-5.70691553 -0.39683726 -3.92871153 -1.31082095 0 0 Z " fill="#EE917E" transform="translate(139,46)"/>
<path d="M0 0 C0.33 0.66 0.66 1.32 1 2 C-0.1796875 4.42578125 -0.1796875 4.42578125 -1.875 7.3125 C-3.98711172 10.9129137 -5.41044747 13.85045718 -6 18 C-3.36 17.34 -0.72 16.68 2 16 C1.67 16.66 1.34 17.32 1 18 C0.34 18 -0.32 18 -1 18 C-1.33 18.99 -1.66 19.98 -2 21 C-3.98 21.33 -5.96 21.66 -8 22 C-8.08153933 20.41753293 -8.13943557 18.83383727 -8.1875 17.25 C-8.22230469 16.36828125 -8.25710937 15.4865625 -8.29296875 14.578125 C-7.94523934 11.51810619 -6.96107247 10.31673297 -5 8 C-4.67 7.154375 -4.34 6.30875 -4 5.4375 C-2.98742892 2.96935799 -1.99633578 1.72410817 0 0 Z " fill="#F0A08D" transform="translate(59,81)"/>
<path d="M0 0 C0.33 0 0.66 0 1 0 C1.19511725 2.74965228 1.38136433 5.49942132 1.5625 8.25 C1.61857422 9.02730469 1.67464844 9.80460938 1.73242188 10.60546875 C1.78076172 11.35957031 1.82910156 12.11367187 1.87890625 12.890625 C1.94960327 13.92751465 1.94960327 13.92751465 2.02172852 14.98535156 C2 17 2 17 1.44506836 19.10058594 C0.77686402 21.13504095 0.77686402 21.13504095 2 23.5 C3.10135551 26.25338878 3.00772069 27.27915413 2 30 C-1.16115776 28.63016497 -1.9927092 28.0109362 -4 25 C-3.625 22.3125 -3.625 22.3125 -3 20 C-2.67 20 -2.34 20 -2 20 C-1.01857619 15.75266168 -0.69079621 11.52675467 -0.4375 7.1875 C-0.39431641 6.49462891 -0.35113281 5.80175781 -0.30664062 5.08789062 C-0.20138547 3.39211314 -0.10027137 1.69607948 0 0 Z " fill="#921C15" transform="translate(185,216)"/>
<path d="M0 0 C1.32 0.33 2.64 0.66 4 1 C3.91291331 2.45945288 3.80473093 3.91765868 3.6875 5.375 C3.62949219 6.18710938 3.57148438 6.99921875 3.51171875 7.8359375 C3 10 3 10 0 12 C-1.32 12 -2.64 12 -4 12 C-3.5317879 7.22423661 -2.75668002 3.95523655 0 0 Z " fill="#93AF92" transform="translate(148,237)"/>
<path d="M0 0 C0.33 0 0.66 0 1 0 C1 1.98 1 3.96 1 6 C0.34 6 -0.32 6 -1 6 C-1 7.32 -1 8.64 -1 10 C-1.66 10 -2.32 10 -3 10 C-3 9.01 -3 8.02 -3 7 C-3.66 7 -4.32 7 -5 7 C-5 7.99 -5 8.98 -5 10 C-5.66 10 -6.32 10 -7 10 C-7 9.01 -7 8.02 -7 7 C-7.99 7 -8.98 7 -10 7 C-10.33 7.99 -10.66 8.98 -11 10 C-11 9.01 -11 8.02 -11 7 C-11.66 7 -12.32 7 -13 7 C-13 6.34 -13 5.68 -13 5 C-12.14535156 4.72285156 -11.29070312 4.44570313 -10.41015625 4.16015625 C-9.30542969 3.79792969 -8.20070312 3.43570313 -7.0625 3.0625 C-5.96035156 2.70285156 -4.85820312 2.34320313 -3.72265625 1.97265625 C-1.11876525 1.26143332 -1.11876525 1.26143332 0 0 Z " fill="#BFD4C3" transform="translate(176,47)"/>
<path d="M0 0 C10.55808656 -0.55353075 10.55808656 -0.55353075 15 3 C11.36804504 5.42130331 9.61650652 5.21022785 5.3125 5.125 C4.13300781 5.10695313 2.95351562 5.08890625 1.73828125 5.0703125 C0.83464844 5.04710937 -0.06898438 5.02390625 -1 5 C-0.67 3.35 -0.34 1.7 0 0 Z " fill="#DC1C2D" transform="translate(163,257)"/>
<path d="M0 0 C2.5 0.25 2.5 0.25 4.5 2.25 C4.125 5.375 4.125 5.375 3.5 8.25 C1.1875 8.875 1.1875 8.875 -1.5 9.25 C-2.49 8.59 -3.48 7.93 -4.5 7.25 C-4.8125 4.75 -4.8125 4.75 -4.5 2.25 C-2.5 0.25 -2.5 0.25 0 0 Z " fill="#F2A1A7" transform="translate(258.5,185.75)"/>
<path d="M0 0 C1.9453125 -0.29296875 1.9453125 -0.29296875 4.125 -0.1875 C5.40375 -0.125625 6.6825 -0.06375 8 0 C5.125 6.875 5.125 6.875 4 8 C1.66702567 8.04092937 -0.66705225 8.04241723 -3 8 C-2.45276317 4.62537285 -1.9451 2.91765 0 0 Z " fill="#F8F4F3" transform="translate(156,143)"/>
<path d="M0 0 C3.79594117 0.56426152 5.58710633 2.18251862 8.25 4.875 C8.95640625 5.57367188 9.6628125 6.27234375 10.390625 6.9921875 C12 9 12 9 12 12 C4.18181818 9.63636364 4.18181818 9.63636364 1 7 C0.1875 3.3125 0.1875 3.3125 0 0 Z " fill="#BD1926" transform="translate(93,270)"/>
<path d="M0 0 C0.33 0 0.66 0 1 0 C2.17333739 4.54668239 2.81583957 9.34797865 2 14 C-0.5 16.5625 -0.5 16.5625 -3 18 C-3.22304441 16.25181409 -3.4278645 14.50129677 -3.625 12.75 C-3.74101562 11.77546875 -3.85703125 10.8009375 -3.9765625 9.796875 C-4.00112537 6.86570607 -3.5312717 5.45471036 -2 3 C-1.67 3.99 -1.34 4.98 -1 6 C-0.67 4.02 -0.34 2.04 0 0 Z " fill="#B91E23" transform="translate(177,120)"/>
<path d="M0 0 C1.8359375 0.04296875 1.8359375 0.04296875 4 1 C5.08324771 3.4806971 5.8907377 5.73050528 6.625 8.3125 C8.09497546 13.4275676 8.09497546 13.4275676 10.2109375 18.29296875 C11 20 11 20 10 23 C8.1328125 22.46484375 8.1328125 22.46484375 6 21 C5.10192843 18.46720339 4.43856117 16.16713271 3.875 13.5625 C2.62438046 8.02461832 2.62438046 8.02461832 0 3 C0 2.01 0 1.02 0 0 Z " fill="#8D1D13" transform="translate(176,99)"/>
<path d="M0 0 C0.99 0.33 1.98 0.66 3 1 C4.62567079 1.14715199 6.25586857 1.24721867 7.88671875 1.31640625 C8.82451172 1.35830078 9.76230469 1.40019531 10.72851562 1.44335938 C11.70498047 1.48267578 12.68144531 1.52199219 13.6875 1.5625 C15.16959961 1.62727539 15.16959961 1.62727539 16.68164062 1.69335938 C19.12095546 1.79941654 21.56037113 1.90147714 24 2 C24 2.33 24 2.66 24 3 C19.02936879 3.91297308 14.97063121 3.91297308 10 3 C10 3.99 10 4.98 10 6 C9.01 6 8.02 6 7 6 C6.67 6.99 6.34 7.98 6 9 C6 8.01 6 7.02 6 6 C5.01 6 4.02 6 3 6 C2.67 6.99 2.34 7.98 2 9 C0.50178941 5.62902617 0 3.79557881 0 0 Z " fill="#F3EEEA" transform="translate(146,48)"/>
<path d="M0 0 C0.33 0 0.66 0 1 0 C1 4.29 1 8.58 1 13 C1.66 13.33 2.32 13.66 3 14 C2.34 19.28 1.68 24.56 1 30 C0.01 30 -0.98 30 -2 30 C-2.05805933 25.75005737 -2.09361654 21.50021676 -2.125 17.25 C-2.14175781 16.0434375 -2.15851563 14.836875 -2.17578125 13.59375 C-2.18222656 12.43359375 -2.18867188 11.2734375 -2.1953125 10.078125 C-2.20578613 9.00981445 -2.21625977 7.94150391 -2.22705078 6.84082031 C-2.00161519 4.02020895 -1.45848994 2.39212537 0 0 Z " fill="#CB1F2A" transform="translate(185,177)"/>
<path d="M0 0 C0.66 0 1.32 0 2 0 C2.06058594 1.02738281 2.12117187 2.05476563 2.18359375 3.11328125 C2.66282871 11.08960238 3.20809418 19.04724363 4 27 C3.01 27 2.02 27 1 27 C0.05757182 17.96278689 -0.11157151 9.07448253 0 0 Z " fill="#B1D89E" transform="translate(173,70)"/>
<path d="M0 0 C0.94746094 0.29003906 0.94746094 0.29003906 1.9140625 0.5859375 C9.53543684 2.8042626 17.13018429 4.02345353 25 5 C25.33 4.01 25.66 3.02 26 2 C26.99 2.33 27.98 2.66 29 3 C28.67 3.33 28.34 3.66 28 4 C34.93 4.495 34.93 4.495 42 5 C42 5.33 42 5.66 42 6 C7.37697874 6.7952284 7.37697874 6.7952284 1.1484375 1.39453125 C0.76945313 0.93433594 0.39046875 0.47414063 0 0 Z " fill="#D52A36" transform="translate(131,259)"/>
<path d="M0 0 C0.66 0 1.32 0 2 0 C2.33 0.66 2.66 1.32 3 2 C5.01669827 3.13350534 5.01669827 3.13350534 7 4 C6.67 6.31 6.34 8.62 6 11 C3.69 10.34 1.38 9.68 -1 9 C-0.67 6.03 -0.34 3.06 0 0 Z " fill="#932D23" transform="translate(129,174)"/>
<path d="M0 0 C0.66 0.33 1.32 0.66 2 1 C-1.7273095 3.6068327 -5.45716794 6.20999479 -9.1875 8.8125 C-10.24259766 9.55048828 -11.29769531 10.28847656 -12.38476562 11.04882812 C-13.91713867 12.11713867 -13.91713867 12.11713867 -15.48046875 13.20703125 C-16.41785889 13.8616333 -17.35524902 14.51623535 -18.32104492 15.19067383 C-20.8336138 16.88762525 -23.38470331 18.46732414 -26 20 C-24.67323236 16.01969707 -22.1173552 14.80604407 -18.75 12.625 C-14.33228133 9.74603727 -10.73382591 6.76541496 -7 3 C-4.66613816 1.58752249 -2.61864016 0.88934949 0 0 Z " fill="#EB7B68" transform="translate(106,63)"/>
<path d="M0 0 C1.28317892 3.84953676 1.06643637 6.94738135 1 11 C0.34 11 -0.32 11 -1 11 C-1.33 11.99 -1.66 12.98 -2 14 C-5.375 14.625 -5.375 14.625 -9 15 C-9.66 14.34 -10.32 13.68 -11 13 C-7.86650268 11.95550089 -7.01031744 12.06576355 -4 13 C-3.855625 11.9275 -3.71125 10.855 -3.5625 9.75 C-3.16250558 7.08337051 -2.72408076 4.58600271 -2 2 C-1.34 2 -0.68 2 0 2 C0 1.34 0 0.68 0 0 Z " fill="#991C17" transform="translate(146,121)"/>
<path d="M0 0 C2 2 2 2 2.04345703 4.33837891 C1.94919434 5.29147949 1.85493164 6.24458008 1.7578125 7.2265625 C1.66113281 8.2578125 1.56445312 9.2890625 1.46484375 10.3515625 C1.35269531 11.43179688 1.24054688 12.51203125 1.125 13.625 C1.02058594 14.71296875 0.91617188 15.8009375 0.80859375 16.921875 C0.54866583 19.61567348 0.27873466 22.30809314 0 25 C-0.33 25 -0.66 25 -1 25 C-1 21.04 -1 17.08 -1 13 C-1.99 13 -2.98 13 -4 13 C-3.67 9.37 -3.34 5.74 -3 2 C-2.01 3.485 -2.01 3.485 -1 5 C-0.67 3.35 -0.34 1.7 0 0 Z " fill="#8A1C12" transform="translate(154,109)"/>
<path d="M0 0 C1.38482919 3.97741105 0.9309324 7.92264736 0.66015625 12.046875 C0.59144569 13.20367767 0.59144569 13.20367767 0.52134705 14.3838501 C0.37415686 16.83962258 0.21844486 19.29476945 0.0625 21.75 C-0.03897438 23.4179346 -0.13989228 25.08590315 -0.24023438 26.75390625 C-0.48704121 30.83635916 -0.74149057 34.91827209 -1 39 C-1.33 39 -1.66 39 -2 39 C-2.04935824 33.76726669 -2.08569949 28.53466824 -2.10986328 23.30175781 C-2.11993431 21.52080933 -2.13359185 19.73987743 -2.15087891 17.95898438 C-2.17507913 15.40230217 -2.18647184 12.84583815 -2.1953125 10.2890625 C-2.20563507 9.49005524 -2.21595764 8.69104797 -2.22659302 7.86782837 C-2.22699226 5.9104278 -2.12241069 3.95356923 -2 2 C-1.34 1.34 -0.68 0.68 0 0 Z " fill="#B11D1F" transform="translate(182,183)"/>
<path d="M0 0 C0.66 0 1.32 0 2 0 C2 11.88 2 23.76 2 36 C1.67 36 1.34 36 1 36 C0.97494385 35.40985107 0.9498877 34.81970215 0.92407227 34.21166992 C0.80799948 31.53673186 0.68532428 28.8621362 0.5625 26.1875 C0.52318359 25.25873047 0.48386719 24.32996094 0.44335938 23.37304688 C0.40146484 22.48037109 0.35957031 21.58769531 0.31640625 20.66796875 C0.27974854 19.84578857 0.24309082 19.0236084 0.20532227 18.17651367 C0.06572228 15.82094822 0.06572228 15.82094822 -1 13 C-0.91382274 10.767731 -0.76077759 8.53761514 -0.5625 6.3125 C-0.46066406 5.13300781 -0.35882813 3.95351562 -0.25390625 2.73828125 C-0.17011719 1.83464844 -0.08632812 0.93101562 0 0 Z " fill="#D91E2E" transform="translate(147,180)"/>
<path d="M0 0 C0.66 0.33 1.32 0.66 2 1 C-0.57506407 3.63322222 -3.16141918 6.25506959 -5.75 8.875 C-6.84441406 9.99455078 -6.84441406 9.99455078 -7.9609375 11.13671875 C-8.66992188 11.85214844 -9.37890625 12.56757812 -10.109375 13.3046875 C-10.75874023 13.96452637 -11.40810547 14.62436523 -12.07714844 15.30419922 C-13.96893948 16.97260712 -15.69941016 17.99293246 -18 19 C-16.40965647 15.05669207 -13.67772141 12.41477094 -10.6875 9.5 C-10.21376953 9.02691406 -9.74003906 8.55382812 -9.25195312 8.06640625 C-6.31597478 5.16657538 -3.26491068 2.52153394 0 0 Z " fill="#F4BDAD" transform="translate(78,62)"/>
<path d="M0 0 C1.6396875 0.2475 1.6396875 0.2475 3.3125 0.5 C6.87525873 1.06718184 6.87525873 1.06718184 10 1 C10 2.32 10 3.64 10 5 C7.69 5 5.38 5 3 5 C2.67 5.99 2.34 6.98 2 8 C1.67 7.34 1.34 6.68 1 6 C0.67 8.64 0.34 11.28 0 14 C-0.33 14 -0.66 14 -1 14 C-1.18451025 4.58997722 -1.18451025 4.58997722 0 0 Z " fill="#366348" transform="translate(146,53)"/>
<path d="M0 0 C0.33 0 0.66 0 1 0 C1.33 3.3 1.66 6.6 2 10 C2.33 10 2.66 10 3 10 C3.38863565 12.12254855 3.76053209 14.24816828 4.125 16.375 C4.33382812 17.55835938 4.54265625 18.74171875 4.7578125 19.9609375 C4.83773437 20.96382812 4.91765625 21.96671875 5 23 C4.34 23.66 3.68 24.32 3 25 C1 23 1 23 0.8046875 21.0546875 C0.86979167 19.03645833 0.93489583 17.01822917 1 15 C0.67 15 0.34 15 0 15 C0 10.05 0 5.1 0 0 Z " fill="#8F1D14" transform="translate(175,224)"/>
<path d="M0 0 C-2.90401402 1.87457943 -5.82497914 3.72090328 -8.75 5.5625 C-9.575 6.09552734 -10.4 6.62855469 -11.25 7.17773438 C-12.04921875 7.67724609 -12.8484375 8.17675781 -13.671875 8.69140625 C-14.4050293 9.15748291 -15.13818359 9.62355957 -15.89355469 10.10375977 C-18.39742714 11.16909539 -19.49368171 10.93367786 -22 10 C-19.93771746 8.72881267 -17.87518109 7.45804035 -15.8125 6.1875 C-15.23435547 5.83107422 -14.65621094 5.47464844 -14.06054688 5.10742188 C-12.37503007 4.06944825 -10.68753975 3.03468147 -9 2 C-8.11699219 1.39800781 -7.23398438 0.79601563 -6.32421875 0.17578125 C-3.57576419 -1.21461341 -2.83303493 -0.87597723 0 0 Z " fill="#E65148" transform="translate(108,43)"/>
<path d="M0 0 C0.66 0 1.32 0 2 0 C2.33 2.97 2.66 5.94 3 9 C1.35 9.66 -0.3 10.32 -2 11 C-2.33 10.67 -2.66 10.34 -3 10 C-2.62056512 5.90210331 -2.30694043 3.46041065 0 0 Z " fill="#742916" transform="translate(192,141)"/>
<path d="M0 0 C0.66 0 1.32 0 2 0 C0.21568627 5.60784314 0.21568627 5.60784314 -1.03125 7.875 C-2.17722117 10.38874321 -2.40811839 12.502833 -2.625 15.25 C-2.73714844 16.58804688 -2.73714844 16.58804688 -2.8515625 17.953125 C-2.90054688 18.62859375 -2.94953125 19.3040625 -3 20 C-1.68 20.33 -0.36 20.66 1 21 C0 22 0 22 -2.5625 22.0625 C-3.366875 22.041875 -4.17125 22.02125 -5 22 C-5.44314183 14.02344709 -3.73338977 7.07720843 0 0 Z " fill="#E33839" transform="translate(47,94)"/>
<path d="M0 0 C2.97 0.33 5.94 0.66 9 1 C9 5.29 9 9.58 9 14 C5 10 5 10 4.75 6.25 C4.8325 5.1775 4.915 4.105 5 3 C2.525 2.01 2.525 2.01 0 1 C0 0.67 0 0.34 0 0 Z " fill="#C4262D" transform="translate(137,179)"/>
<path d="M0 0 C7.42857143 -0.14285714 7.42857143 -0.14285714 11 1 C10.67 2.32 10.34 3.64 10 5 C6.04 4.67 2.08 4.34 -2 4 C-1.34 2.68 -0.68 1.36 0 0 Z " fill="#6D1F0B" transform="translate(162,96)"/>
<path d="M0 0 C2.32125169 3.48187753 3.15122685 6.87171039 4.125 10.875 C4.30675781 11.58269531 4.48851562 12.29039063 4.67578125 13.01953125 C5.59922489 16.74802173 6.22613309 20.1557375 6 24 C5.34 24.33 4.68 24.66 4 25 C3.32727653 21.58449704 2.66288201 18.16742548 2 14.75 C1.80921875 13.78191406 1.6184375 12.81382813 1.421875 11.81640625 C1.24140625 10.88183594 1.0609375 9.94726562 0.875 8.984375 C0.70742187 8.12553711 0.53984375 7.26669922 0.3671875 6.38183594 C0 4 0 4 0 0 Z " fill="#277B42" transform="translate(177,107)"/>
<path d="M0 0 C0.33 0 0.66 0 1 0 C1 2.64 1 5.28 1 8 C0.67 8 0.34 8 0 8 C-0.33 15.59 -0.66 23.18 -1 31 C-1.33 31 -1.66 31 -2 31 C-2.04947698 27.06734104 -2.08575578 23.13480286 -2.10986328 19.2019043 C-2.12485495 17.20680382 -2.15026731 15.21179054 -2.17578125 13.21679688 C-2.18222656 11.96318359 -2.18867188 10.70957031 -2.1953125 9.41796875 C-2.20578613 8.26063232 -2.21625977 7.1032959 -2.22705078 5.91088867 C-2 3 -2 3 0 0 Z " fill="#7C1C0D" transform="translate(178,188)"/>
<path d="M0 0 C1.73602074 3.05938081 2.39557633 5.63288438 2.75 9.125 C2.84796875 9.99382812 2.9459375 10.86265625 3.046875 11.7578125 C3 14 3 14 1 16 C0.01 15.67 -0.98 15.34 -2 15 C-1.70703125 13.01432292 -1.4140625 11.02864583 -1.12109375 9.04296875 C-0.86095201 6.7974658 -0.86095201 6.7974658 -2 4 C-1.0625 1.8125 -1.0625 1.8125 0 0 Z " fill="#871D11" transform="translate(174,112)"/>
<path d="M0 0 C-0.86882812 0.45890625 -1.73765625 0.9178125 -2.6328125 1.390625 C-4.36144531 2.31101563 -4.36144531 2.31101563 -6.125 3.25 C-7.83042969 4.15492187 -7.83042969 4.15492187 -9.5703125 5.078125 C-12.8495468 6.91569137 -15.90523 8.87410936 -19 11 C-19.66 10.67 -20.32 10.34 -21 10 C-6.25699482 -3.12849741 -6.25699482 -3.12849741 0 0 Z " fill="#F1A795" transform="translate(105,48)"/>
<path d="M0 0 C-1.69769531 0.63228516 -1.69769531 0.63228516 -3.4296875 1.27734375 C-4.91147994 1.83067131 -6.39324959 2.38405989 -7.875 2.9375 C-8.62136719 3.21529297 -9.36773437 3.49308594 -10.13671875 3.77929688 C-14.12724515 5.25099194 -14.12724515 5.25099194 -18 7 C-19.99960012 7.039992 -22.00047242 7.04346799 -24 7 C-21.68893573 3.82228663 -18.9708037 3.34448161 -15.2578125 2.54296875 C-12.10134847 1.7838883 -9.11050692 0.63905928 -6.078125 -0.51171875 C-3.67642843 -1.07602715 -2.33931168 -0.66361936 0 0 Z " fill="#E76052" transform="translate(132,35)"/>
<path d="M0 0 C0.66 0.33 1.32 0.66 2 1 C1.278125 1.825 0.55625 2.65 -0.1875 3.5 C-2.75898178 6.55091059 -4.74462115 9.7897042 -6.69140625 13.265625 C-8.23168845 15.30707365 -9.66153873 16.03099702 -12 17 C-10.60827683 12.9625531 -8.70711315 10.10184153 -6 6.8125 C-5.29875 5.95269531 -4.5975 5.09289062 -3.875 4.20703125 C-2 2 -2 2 0 0 Z " fill="#E63A49" transform="translate(248,130)"/>
<path d="M0 0 C2.62527189 -0.05382106 5.24944713 -0.09358313 7.875 -0.125 C8.62136719 -0.14175781 9.36773437 -0.15851562 10.13671875 -0.17578125 C12.09194461 -0.1933959 14.04742021 -0.10320189 16 0 C16.66 0.66 17.32 1.32 18 2 C17.625 5.125 17.625 5.125 17 8 C15.02 8.66 13.04 9.32 11 10 C11.66 9.01 12.32 8.02 13 7 C13.99 7 14.98 7 16 7 C15.73323796 5.01508358 15.73323796 5.01508358 15 3 C11.83754459 1.9458482 9.13051782 1.68724328 5.8125 1.4375 C4.72582031 1.35371094 3.63914063 1.26992188 2.51953125 1.18359375 C1.68808594 1.12300781 0.85664063 1.06242187 0 1 C0 0.67 0 0.34 0 0 Z " fill="#E54E45" transform="translate(141,32)"/>
<path d="M0 0 C2.125 0.375 2.125 0.375 4 1 C3.67 3.31 3.34 5.62 3 8 C1.68 7.67 0.36 7.34 -1 7 C-1.625 4.625 -1.625 4.625 -2 2 C-1.34 1.34 -0.68 0.68 0 0 Z " fill="#E42E3E" transform="translate(92,147)"/>
<path d="M0 0 C4.12838068 0.60711481 7.40422382 1.87522317 11 4 C11.33 4.99 11.66 5.98 12 7 C11.34 7.66 10.68 8.32 10 9 C8.33043913 7.69118353 6.66441696 6.37785174 5 5.0625 C4.071875 4.33160156 3.14375 3.60070312 2.1875 2.84765625 C1.465625 2.23792969 0.74375 1.62820313 0 1 C0 0.67 0 0.34 0 0 Z " fill="#CF232C" transform="translate(75,263)"/>
<path d="M0 0 C6.75 -0.125 6.75 -0.125 9 1 C9 1.66 9 2.32 9 3 C5.77208445 5.1519437 4.71599191 5.20086443 1 5 C0.67 3.35 0.34 1.7 0 0 Z " fill="#C4DBC6" transform="translate(141,264)"/>
<path d="M0 0 C0.99 0 1.98 0 3 0 C1.36260685 5.20988728 -1.55376114 8.61159416 -6.3125 11.3125 C-7.1478125 11.6528125 -7.1478125 11.6528125 -8 12 C-6.60178299 9.02962512 -4.99407657 6.40407467 -3.0625 3.75 C-2.55847656 3.04359375 -2.05445313 2.3371875 -1.53515625 1.609375 C-1.02855469 1.07828125 -0.52195313 0.5471875 0 0 Z " fill="#FAE2E3" transform="translate(242,148)"/>
<path d="M0 0 C2.5 1 2.5 1 4 2 C3.75 3.875 3.75 3.875 3 6 C0.9375 7.25 0.9375 7.25 -1 8 C-0.67 6.35 -0.34 4.7 0 3 C-3.63 2.67 -7.26 2.34 -11 2 C-7.29598872 -0.46934085 -4.29412135 -0.44928433 0 0 Z " fill="#F2AA98" transform="translate(142,36)"/>
<path d="M0 0 C0.99 0.33 1.98 0.66 3 1 C3 2.32 3 3.64 3 5 C-3.09339169 6.88341198 -7.72532201 7.0748291 -14 6 C-14 5.67 -14 5.34 -14 5 C-7.07 4.01 -7.07 4.01 0 3 C0 2.01 0 1.02 0 0 Z " fill="#D01D29" transform="translate(183,258)"/>
<path d="M0 0 C0.99 0 1.98 0 3 0 C3 2.31 3 4.62 3 7 C1.68 7.33 0.36 7.66 -1 8 C-1.625 5.125 -1.625 5.125 -2 2 C-1.34 1.34 -0.68 0.68 0 0 Z " fill="#E32436" transform="translate(206,164)"/>
<path d="M0 0 C1.0219601 3.18184739 0.94954615 5.32243328 0.1875 8.5625 C0.01605469 9.32691406 -0.15539062 10.09132813 -0.33203125 10.87890625 C-1 13 -1 13 -3 16 C-4.24213914 11.72672888 -3.69146302 9.28458881 -2.0625 5.1875 C-1.68222656 4.21167969 -1.30195313 3.23585938 -0.91015625 2.23046875 C-0.60980469 1.49441406 -0.30945313 0.75835937 0 0 Z " fill="#8E1D14" transform="translate(141,115)"/>
<path d="M0 0 C0.25 6.625 0.25 6.625 -2 10 C-2.99 10 -3.98 10 -5 10 C-4.38675022 3.49955237 -4.38675022 3.49955237 -2.5 1.0625 C-1 0 -1 0 0 0 Z " fill="#8BA485" transform="translate(194,258)"/>
<path d="M0 0 C0.66 0 1.32 0 2 0 C1.67 2.31 1.34 4.62 1 7 C2.32 7 3.64 7 5 7 C5 7.66 5 8.32 5 9 C3.00045254 9.04254356 0.99958364 9.04080783 -1 9 C-1.33 8.67 -1.66 8.34 -2 8 C-1.28 1.28 -1.28 1.28 0 0 Z " fill="#D01D29" transform="translate(165,245)"/>
<path d="M0 0 C0.61875 0.804375 1.2375 1.60875 1.875 2.4375 C3.74164041 5.03874519 3.74164041 5.03874519 6 6 C5.67 7.32 5.34 8.64 5 10 C1.83884224 8.63016497 1.0072908 8.0109362 -1 5 C-0.625 2.3125 -0.625 2.3125 0 0 Z " fill="#D71C2C" transform="translate(182,236)"/>
<path d="M0 0 C2.87460163 4.31190245 3.53867848 9.01278296 2.61328125 14.14453125 C2.14254293 15.78376895 1.58009855 17.39619812 1 19 C0.13988779 16.0500839 -0.08299706 13.50320399 0 10.4375 C0.07937863 7.49552941 -0.04891491 5.85325528 -1 3 C-0.67 2.01 -0.34 1.02 0 0 Z " fill="#BD1D23" transform="translate(146,117)"/>
<path d="M0 0 C2.64 0 5.28 0 8 0 C6.68 0.33 5.36 0.66 4 1 C4 2.98 4 4.96 4 7 C2.68 7 1.36 7 0 7 C0 4.69 0 2.38 0 0 Z " fill="#CFD6A5" transform="translate(155,95)"/>
<path d="M0 0 C0.91058531 3.07322544 1.08886184 5.80097361 1 9 C2.65 9 4.3 9 6 9 C4.1875 11 4.1875 11 2 13 C1.01 13 0.02 13 -1 13 C-1.02696365 11.20841511 -1.04637917 9.41671527 -1.0625 7.625 C-1.07410156 6.62726563 -1.08570313 5.62953125 -1.09765625 4.6015625 C-1 2 -1 2 0 0 Z " fill="#E7594C" transform="translate(46,100)"/>
<path d="M0 0 C1.17571451 3.67410785 1.07366746 7.16929183 1 11 C2.32 11.33 3.64 11.66 5 12 C3.02 12.66 1.04 13.32 -1 14 C-1.33 13.67 -1.66 13.34 -2 13 C-1.93588312 11.1843265 -1.79902523 9.3709514 -1.625 7.5625 C-1.53476562 6.57378906 -1.44453125 5.58507812 -1.3515625 4.56640625 C-1 2 -1 2 0 0 Z " fill="#E96C5B" transform="translate(48,96)"/>
<path d="M0 0 C0.33 1.98 0.66 3.96 1 6 C-0.65 7.32 -2.3 8.64 -4 10 C-4 8.68 -4 7.36 -4 6 C-3.34 6 -2.68 6 -2 6 C-2.66 5.34 -3.32 4.68 -4 4 C-4 3.01 -4 2.02 -4 1 C-2 0 -2 0 0 0 Z " fill="#92241B" transform="translate(178,128)"/>
<path d="M0 0 C0.66 0 1.32 0 2 0 C1.48594831 4.96916636 0.76615118 9.29026351 -1 14 C-2.62433191 11.49923002 -3.07333427 10.41017471 -2.5390625 7.421875 C-2.23742187 6.54015625 -1.93578125 5.6584375 -1.625 4.75 C-1.32851562 3.85796875 -1.03203125 2.9659375 -0.7265625 2.046875 C-0.48679688 1.37140625 -0.24703125 0.6959375 0 0 Z " fill="#921D15" transform="translate(149,106)"/>
<path d="M0 0 C0.33 0 0.66 0 1 0 C1.08107583 1.93681161 1.13922475 3.8745934 1.1875 5.8125 C1.22230469 6.89144531 1.25710937 7.97039062 1.29296875 9.08203125 C1 12 1 12 -0.51171875 13.88671875 C-1.00285156 14.25410156 -1.49398437 14.62148437 -2 15 C-2.33 13.02 -2.66 11.04 -3 9 C-2.34 9 -1.68 9 -1 9 C-0.67 6.03 -0.34 3.06 0 0 Z " fill="#951D16" transform="translate(173,97)"/>
<path d="M0 0 C0.66 0.33 1.32 0.66 2 1 C-1.63 3.31 -5.26 5.62 -9 8 C-9.66 7.34 -10.32 6.68 -11 6 C-7.57874946 3.12614955 -4.16111563 1.54115394 0 0 Z " fill="#EC8370" transform="translate(106,63)"/>
<path d="M0 0 C0.82514784 2.83384108 1.07936233 5.16935251 0.87890625 8.109375 C0.83056641 8.86347656 0.78222656 9.61757812 0.73242188 10.39453125 C0.64831055 11.56048828 0.64831055 11.56048828 0.5625 12.75 C0.51029297 13.54277344 0.45808594 14.33554688 0.40429688 15.15234375 C0.27510676 17.10193997 0.13830035 19.05102886 0 21 C-0.33 21 -0.66 21 -1 21 C-1.22537111 17.87598221 -1.42738648 14.75088667 -1.625 11.625 C-1.68945312 10.73554688 -1.75390625 9.84609375 -1.8203125 8.9296875 C-1.871875 8.07890625 -1.9234375 7.228125 -1.9765625 6.3515625 C-2.02893066 5.56604004 -2.08129883 4.78051758 -2.13525391 3.97119141 C-2 2 -2 2 0 0 Z " fill="#DB2332" transform="translate(182,183)"/>
<path d="M0 0 C1.32 0.33 2.64 0.66 4 1 C4.66 4.3 5.32 7.6 6 11 C5.67 10.34 5.34 9.68 5 9 C4.34 9 3.68 9 3 9 C0 3.375 0 3.375 0 0 Z " fill="#98231C" transform="translate(176,99)"/>
<path d="M0 0 C0.33 0 0.66 0 1 0 C1.33 5.28 1.66 10.56 2 16 C-0.49374292 13.50625708 -0.62814292 12.49545655 -1 9 C-0.78729362 5.98159521 -0.42419109 2.99544172 0 0 Z " fill="#821C0F" transform="translate(181,213)"/>
<path d="M0 0 C0.33 0 0.66 0 1 0 C0.67 5.94 0.34 11.88 0 18 C-0.33 18 -0.66 18 -1 18 C-1.22245975 15.75135275 -1.42746557 13.50097377 -1.625 11.25 C-1.74101562 9.99703125 -1.85703125 8.7440625 -1.9765625 7.453125 C-1.99888599 4.16413097 -1.77961002 2.68979224 0 0 Z " fill="#D52634" transform="translate(185,177)"/>
<path d="M0 0 C0.33 0 0.66 0 1 0 C1.33848652 1.89492006 1.67056911 3.79098466 2 5.6875 C2.185625 6.74324219 2.37125 7.79898438 2.5625 8.88671875 C2.95068074 11.64904062 3.08259976 14.21742043 3 17 C1.23537317 13.91190305 1 12.76687864 1 9 C0.01 8.67 -0.98 8.34 -2 8 C-1.34 5.36 -0.68 2.72 0 0 Z " fill="#BC2126" transform="translate(174,103)"/>
<path d="M0 0 C0.33 0 0.66 0 1 0 C1.08131463 1.43655854 1.13933559 2.8744483 1.1875 4.3125 C1.22230469 5.11300781 1.25710937 5.91351563 1.29296875 6.73828125 C0.93801608 9.47851584 0.10633718 10.29171079 -2 12 C-2.33 9.36 -2.66 6.72 -3 4 C-2.01 4 -1.02 4 0 4 C0 2.68 0 1.36 0 0 Z " fill="#6B1B08" transform="translate(155,102)"/>
<path d="M0 0 C0.65234375 1.765625 0.65234375 1.765625 1 4 C0.00390625 5.921875 0.00390625 5.921875 -1.4375 7.75 C-2.14712891 8.67039062 -2.14712891 8.67039062 -2.87109375 9.609375 C-3.24363281 10.06828125 -3.61617187 10.5271875 -4 11 C-4.65234375 9.234375 -4.65234375 9.234375 -5 7 C-4.00390625 5.078125 -4.00390625 5.078125 -2.5625 3.25 C-2.08941406 2.63640625 -1.61632813 2.0228125 -1.12890625 1.390625 C-0.75636719 0.93171875 -0.38382813 0.4728125 0 0 Z " fill="#E96D5C" transform="translate(54,85)"/>
<path d="M0 0 C-1.40751221 0.86916887 -2.8264521 1.71985149 -4.25 2.5625 C-5.03890625 3.03816406 -5.8278125 3.51382813 -6.640625 4.00390625 C-9.30844625 5.13022151 -10.34501768 5.0169313 -13 4 C-11.59248779 3.13083113 -10.1735479 2.28014851 -8.75 1.4375 C-7.96109375 0.96183594 -7.1721875 0.48617187 -6.359375 -0.00390625 C-3.69155375 -1.13022151 -2.65498232 -1.0169313 0 0 Z " fill="#EF9A87" transform="translate(139,46)"/>
<path d="M0 0 C-0.99 0.495 -0.99 0.495 -2 1 C-2 1.66 -2 2.32 -2 3 C-6.29 2.34 -10.58 1.68 -15 1 C-15 0.67 -15 0.34 -15 0 C-4.44191344 -1.33257403 -4.44191344 -1.33257403 0 0 Z " fill="#762210" transform="translate(183,265)"/>
<path d="M0 0 C0.66 0 1.32 0 2 0 C2.625 2.875 2.625 2.875 3 6 C2.34 6.66 1.68 7.32 1 8 C-1 6 -1 6 -1.1875 3.4375 C-1 1 -1 1 0 0 Z " fill="#A31D1B" transform="translate(177,241)"/>
<path d="M0 0 C2.1519437 3.22791555 2.20086443 4.28400809 2 8 C1.34 8 0.68 8 0 8 C-0.33 8.99 -0.66 9.98 -1 11 C-1.02688151 9.35425434 -1.04634123 7.70838587 -1.0625 6.0625 C-1.07410156 5.14597656 -1.08570313 4.22945312 -1.09765625 3.28515625 C-1 1 -1 1 0 0 Z " fill="#6FBD7F" transform="translate(147,58)"/>
<path d="M0 0 C0.66 0 1.32 0 2 0 C2 0.66 2 1.32 2 2 C2.99 2.66 3.98 3.32 5 4 C4.01 4.33 3.02 4.66 2 5 C1.34 4.67 0.68 4.34 0 4 C-0.33 5.98 -0.66 7.96 -1 10 C-1.33 10 -1.66 10 -2 10 C-2.1953125 3.9453125 -2.1953125 3.9453125 -2 2 C-1.34 1.34 -0.68 0.68 0 0 Z " fill="#E7777F" transform="translate(147,45)"/>
<path d="M0 0 C-1 2 -1 2 -3.50390625 2.8515625 C-4.51324219 3.10679688 -5.52257812 3.36203125 -6.5625 3.625 C-7.57441406 3.88539062 -8.58632812 4.14578125 -9.62890625 4.4140625 C-10.41136719 4.60742188 -11.19382813 4.80078125 -12 5 C-11 2 -11 2 -8.8125 0.8125 C-5.74609689 -0.07334979 -3.17561845 -0.14770318 0 0 Z " fill="#E96C5E" transform="translate(150,42)"/>
<path d="M0 0 C0.99 0.33 1.98 0.66 3 1 C2.67 3.31 2.34 5.62 2 8 C1.01 7.67 0.02 7.34 -1 7 C-0.67 4.69 -0.34 2.38 0 0 Z " fill="#95221B" transform="translate(150,230)"/>
<path d="M0 0 C0.33 1.32 0.66 2.64 1 4 C1.66 4 2.32 4 3 4 C2.67 5.98 2.34 7.96 2 10 C1.01 10 0.02 10 -1 10 C-0.67 6.7 -0.34 3.4 0 0 Z " fill="#FADDDF" transform="translate(201,132)"/>
<path d="M0 0 C0.99 0 1.98 0 3 0 C2.67 0.99 2.34 1.98 2 3 C-1.375 3.625 -1.375 3.625 -5 4 C-5.66 3.34 -6.32 2.68 -7 2 C-3.86650268 0.95550089 -3.01031744 1.06576355 0 2 C0 1.34 0 0.68 0 0 Z " fill="#CD1D28" transform="translate(142,132)"/>
<path d="M0 0 C-0.33 1.32 -0.66 2.64 -1 4 C-3.4375 3.625 -3.4375 3.625 -6 3 C-6.33 2.34 -6.66 1.68 -7 1 C-4 0 -4 0 0 0 Z " fill="#D01E2B" transform="translate(152,97)"/>
<path d="M0 0 C2.31 0 4.62 0 7 0 C7 0.99 7 1.98 7 3 C4.69 3 2.38 3 0 3 C0 2.01 0 1.02 0 0 Z " fill="#F8FBF9" transform="translate(156,51)"/>
<path d="M0 0 C0.33 1.32 0.66 2.64 1 4 C2.65 3.67 4.3 3.34 6 3 C4.75 4.5 4.75 4.5 3 6 C1.68 6 0.36 6 -1 6 C-1.042721 4.33388095 -1.04063832 2.66617115 -1 1 C-0.67 0.67 -0.34 0.34 0 0 Z " fill="#F4BCAC" transform="translate(54,93)"/>
<path d="M0 0 C0.33 0.66 0.66 1.32 1 2 C0.22265625 3.9453125 0.22265625 3.9453125 -0.9375 6.125 C-1.31777344 6.84945312 -1.69804688 7.57390625 -2.08984375 8.3203125 C-2.39019531 8.87460938 -2.69054688 9.42890625 -3 10 C-3.33 10 -3.66 10 -4 10 C-4.25 7.25 -4.25 7.25 -4 4 C-2 1.625 -2 1.625 0 0 Z " fill="#F1A390" transform="translate(59,81)"/>
<path d="M0 0 C0.53625 0.2475 1.0725 0.495 1.625 0.75 C-3.79038462 4.81153846 -3.79038462 4.81153846 -6.75 4.5 C-7.28625 4.2525 -7.8225 4.005 -8.375 3.75 C-2.95961538 -0.31153846 -2.95961538 -0.31153846 0 0 Z " fill="#E75D51" transform="translate(94.375,49.25)"/>
<path d="M0 0 C1.98 0 3.96 0 6 0 C6.33 1.32 6.66 2.64 7 4 C5.02 4.99 5.02 4.99 3 6 C3 4.68 3 3.36 3 2 C2.01 1.34 1.02 0.68 0 0 Z " fill="#F5BEAE" transform="translate(136,38)"/>
<path d="M0 0 C0.33 0 0.66 0 1 0 C1 2.64 1 5.28 1 8 C0.01 7.67 -0.98 7.34 -2 7 C-1.125 1.125 -1.125 1.125 0 0 Z " fill="#971D16" transform="translate(178,188)"/>
<path d="M0 0 C0.99 0.33 1.98 0.66 3 1 C-0.96 4.465 -0.96 4.465 -5 8 C-5 5 -5 5 -2.5 2.3125 C-1.675 1.549375 -0.85 0.78625 0 0 Z " fill="#E63D4B" transform="translate(118,147)"/>
<path d="M0 0 C0.99 0 1.98 0 3 0 C2.25 2.4375 2.25 2.4375 1 5 C-1.125 5.8125 -1.125 5.8125 -3 6 C-2 4 -1 2 0 0 Z " fill="#FBEAEB" transform="translate(242,148)"/>
<path d="M0 0 C0.99 0.33 1.98 0.66 3 1 C3 2.32 3 3.64 3 5 C3.66 5.33 4.32 5.66 5 6 C4.34 6 3.68 6 3 6 C2.67 6.99 2.34 7.98 2 9 C0.50178941 5.62902617 0 3.79557881 0 0 Z " fill="#CEDFD0" transform="translate(146,48)"/>
<path d="M0 0 C0.99 0.33 1.98 0.66 3 1 C3 2.32 3 3.64 3 5 C1.1875 5.625 1.1875 5.625 -1 6 C-1.99 5.34 -2.98 4.68 -4 4 C-2.68 3.34 -1.36 2.68 0 2 C0 1.34 0 0.68 0 0 Z " fill="#C11D25" transform="translate(183,258)"/>
<path d="M0 0 C0.66 0.33 1.32 0.66 2 1 C2.625 4.0625 2.625 4.0625 3 7 C2.01 6.67 1.02 6.34 0 6 C-0.38218767 4.34385343 -0.71395102 2.67542976 -1 1 C-0.67 0.67 -0.34 0.34 0 0 Z " fill="#6C210C" transform="translate(186,233)"/>
<path d="M0 0 C2.31 0.33 4.62 0.66 7 1 C6.34 2.65 5.68 4.3 5 6 C4.34 5.67 3.68 5.34 3 5 C3.33 4.01 3.66 3.02 4 2 C2.68 1.34 1.36 0.68 0 0 Z " fill="#EF9985" transform="translate(142,36)"/>
</svg>
